<svg xmlns="http://www.w3.org/2000/svg" viewBox="0 0 700.46 434.27"><defs><style>.cls-1{fill:#ebebeb;}.cls-2{fill:#fafafa;}.cls-3{fill:#f5f5f5;}.cls-4{fill:#e0e0e0;}.cls-5{fill:#263238;}.cls-6{fill:#455a64;}.cls-7{fill:#e8505b;}.cls-8,.cls-9{opacity:0.2;}.cls-10{fill:#ffbe9d;}.cls-11{fill:#eb996e;}</style></defs><g id="Capa_2" data-name="Capa 2"><g id="Background_Complete" data-name="Background Complete"><rect class="cls-1" x="22.44" y="37.22" width="119.58" height="214.82"/><rect class="cls-2" x="27.22" y="43.45" width="108.79" height="202.19"/><polygon class="cls-3" points="136.01 45.83 27.22 184.22 27.22 43.45 136.01 43.45 136.01 45.83"/><rect class="cls-1" x="27.22" y="101.61" width="111.15" height="2.15"/><rect class="cls-1" x="27.22" y="149.76" width="111.15" height="2.15"/><rect class="cls-1" x="27.22" y="197.91" width="111.15" height="2.15"/><rect class="cls-1" x="7.27" y="174.28" width="148.68" height="5.5" transform="translate(-95.41 258.64) rotate(-90)"/><rect class="cls-1" x="48.17" y="43.45" width="2.49" height="59.24"/><rect class="cls-1" x="69.64" y="43.45" width="2.49" height="59.24"/><rect class="cls-1" x="91.12" y="43.45" width="2.49" height="59.24"/><rect class="cls-1" x="112.6" y="43.45" width="2.49" height="59.24"/><rect class="cls-3" x="17.38" y="33.58" width="5.06" height="219.79"/><polygon class="cls-4" points="147.08 253.97 142.02 252.04 142.02 33.58 147.08 33.58 147.08 253.97"/><rect class="cls-4" x="17.38" y="31.36" width="129.7" height="5.86"/><rect class="cls-4" x="13.8" y="254.7" width="136.71" height="5.46"/><polygon class="cls-1" points="142.02 252.04 150.5 254.7 13.79 254.7 22.44 252.04 142.02 252.04"/><path class="cls-1" d="M656.41,171.13s-8.46-.61-7.68,18.35,2.71,29.06,2.71,29.06-.24,4.21-3.5,3.38-9.38-4.91-12.41-1.86-2,8,2.14,13.77,12.82,18.62,13.6,19.79,1.07,3.3-1.24,3.09-17.89-5.49-19.95,2.06,12.16,21.6,13.68,23.16,1.61,2.56,1,3.51-5.69-1.32-10.18-2.64-9.93-2.07-10.76,2.39,5.44,17.47,28.89,31.16L664,322l10.67-6.81c22-16,26.89-29.56,25.63-33.91s-6.61-3.06-10.95-1.3-9.15,4.53-9.86,3.65-.73-1.87.63-3.59,14.1-17.12,11.29-24.42-17.78-.48-20,0-2.19-1.74-1.54-3,8-14.93,11.55-21.05,4.19-11.07.75-13.91-9,1.95-12.16,3.09-3.83-3-3.83-3,.92-10.24-.2-29.18-9.68-17.42-9.68-17.42"/><path class="cls-4" d="M657.07,188.11a3.35,3.35,0,0,1,0,.4l.09,1.16c.07,1.05.17,2.55.3,4.48.26,3.89.59,9.52,1,16.48.77,13.91,1.67,33.14,2.6,54.38s1.79,40.49,2.48,54.41c.35,6.94.64,12.57.84,16.48.1,1.93.17,3.43.22,4.48,0,.5,0,.88,0,1.16a4,4,0,0,1,0,.4s0-.13,0-.39-.06-.67-.09-1.17c-.08-1-.18-2.55-.31-4.47-.26-3.89-.59-9.52-1-16.48-.78-13.91-1.68-33.15-2.61-54.4s-1.78-40.47-2.48-54.39c-.35-6.94-.64-12.57-.84-16.48-.09-1.93-.17-3.44-.22-4.48,0-.5,0-.89,0-1.17Z"/><path class="cls-4" d="M643.87,226.13a3.8,3.8,0,0,1,.7.59c.44.39,1,1,1.79,1.72,1.49,1.47,3.49,3.56,5.66,5.91s4,4.42,5.52,6l1.68,1.82a3.57,3.57,0,0,1,.58.7,4,4,0,0,1-.7-.58c-.44-.4-1.05-1-1.78-1.73-1.48-1.49-3.45-3.61-5.62-6l-5.56-6c-.66-.71-1.22-1.32-1.69-1.81A4.19,4.19,0,0,1,643.87,226.13Z"/><path class="cls-4" d="M660.92,242.53c-.08-.08,4-4.4,9.22-9.65s9.43-9.43,9.52-9.34-4,4.4-9.22,9.65S661,242.62,660.92,242.53Z"/><path class="cls-4" d="M660.88,275.22a3.92,3.92,0,0,1,.78-.5l2.21-1.23c1.86-1.05,4.43-2.5,7.2-4.21s5.24-3.32,7-4.51l2.1-1.41a4.92,4.92,0,0,1,.8-.47,3.81,3.81,0,0,1-.7.61c-.47.37-1.16.89-2,1.52-1.73,1.25-4.18,2.92-7,4.63s-5.38,3.13-7.29,4.1c-1,.49-1.73.87-2.27,1.12A3.72,3.72,0,0,1,660.88,275.22Z"/><path class="cls-4" d="M642.19,263.78a4.05,4.05,0,0,1,.78.37c.49.26,1.18.65,2,1.14,1.72,1,4.08,2.35,6.67,3.89s4.92,2.95,6.6,4c.84.52,1.51.95,2,1.25a3.36,3.36,0,0,1,.7.51,3.19,3.19,0,0,1-.78-.37c-.49-.26-1.19-.64-2-1.13-1.72-1-4.07-2.35-6.66-3.89s-4.93-3-6.6-4c-.84-.52-1.52-.95-2-1.26S642.17,263.81,642.19,263.78Z"/><path class="cls-4" d="M638.48,292.64a5,5,0,0,1,1,.48l2.63,1.45c2.21,1.24,5.24,3,8.58,4.92s6.35,3.72,8.52,5l2.55,1.56a4.84,4.84,0,0,1,.91.63,6.39,6.39,0,0,1-1-.48L659,304.78c-2.21-1.24-5.24-3-8.58-4.92s-6.35-3.72-8.52-5l-2.55-1.57A5.77,5.77,0,0,1,638.48,292.64Z"/><path class="cls-4" d="M662.18,306.21a5.31,5.31,0,0,1,1-.66l2.74-1.67c2.31-1.41,5.5-3.37,9-5.63s6.55-4.37,8.77-5.92l2.64-1.83a5.8,5.8,0,0,1,1-.63,6.5,6.5,0,0,1-.89.76c-.6.48-1.47,1.14-2.56,1.95-2.18,1.61-5.25,3.78-8.72,6s-6.69,4.18-9.05,5.53c-1.18.66-2.14,1.2-2.81,1.55A7.51,7.51,0,0,1,662.18,306.21Z"/><polygon class="cls-4" points="679.13 325.68 647.92 325.68 658.11 402.78 668.95 402.78 679.13 325.68"/><path class="cls-3" d="M649.54,335.16a.9.9,0,0,0,.17.27,2,2,0,0,0,.75.54,3.78,3.78,0,0,0,3.3-.41c1.26-.69,2.36-2.06,4-2.66a8.85,8.85,0,0,1,5.74.11,24.84,24.84,0,0,1,5.35,2.59,35.24,35.24,0,0,0,4.34,2.33,12,12,0,0,0,3.21.93,5.6,5.6,0,0,0,.9.06,1.14,1.14,0,0,0,.32,0,16.86,16.86,0,0,1-4.28-1.29,42.52,42.52,0,0,1-4.25-2.41,23.56,23.56,0,0,0-5.44-2.67,9.17,9.17,0,0,0-6.05-.07,7.94,7.94,0,0,0-2.28,1.41,17.54,17.54,0,0,1-1.79,1.39,3.69,3.69,0,0,1-3,.52A3.34,3.34,0,0,1,649.54,335.16Z"/><path class="cls-3" d="M650.68,349.36s.25-.32.74-.83a6.84,6.84,0,0,1,2.49-1.58,11,11,0,0,1,4.34-.65,45.1,45.1,0,0,1,5.43.73,18.52,18.52,0,0,0,5.56.24,15.43,15.43,0,0,0,4.37-1.25,13.69,13.69,0,0,0,2.64-1.57,3.55,3.55,0,0,0,.83-.75,26.59,26.59,0,0,1-3.61,2,16.12,16.12,0,0,1-4.29,1.11,19.08,19.08,0,0,1-5.42-.27,40.39,40.39,0,0,0-5.5-.7,11.07,11.07,0,0,0-4.49.78,6.65,6.65,0,0,0-2.5,1.79,3.37,3.37,0,0,0-.47.69A.86.86,0,0,0,650.68,349.36Z"/><path class="cls-3" d="M675.6,357a2.79,2.79,0,0,0-.86-.45,9.33,9.33,0,0,0-2.59-.55,16.43,16.43,0,0,0-3.91.22c-1.46.24-3,.64-4.66,1a19.41,19.41,0,0,1-4.64.52,10,10,0,0,1-3.69-.8,8.41,8.41,0,0,1-2.8-2.08,2.43,2.43,0,0,0,.53.82,6.51,6.51,0,0,0,2.12,1.59,9.92,9.92,0,0,0,3.82.94,19.19,19.19,0,0,0,4.77-.49c1.66-.36,3.2-.77,4.63-1a17.92,17.92,0,0,1,3.81-.32A14.2,14.2,0,0,1,675.6,357Z"/><path class="cls-3" d="M653.44,367.65a5.14,5.14,0,0,1,3-.3,14.46,14.46,0,0,1,3.17,1.18,11.79,11.79,0,0,0,4.11,1.13,12.27,12.27,0,0,0,7.47-1.73,10.08,10.08,0,0,0,1.86-1.43c.38-.4.57-.63.55-.66a26.35,26.35,0,0,1-2.59,1.78,12.76,12.76,0,0,1-7.24,1.54c-3-.17-5.22-1.93-7.27-2.17a4.65,4.65,0,0,0-2.36.21A1.57,1.57,0,0,0,653.44,367.65Z"/><path class="cls-3" d="M655.18,382.45a6,6,0,0,0,2.6-.51c1.57-.53,3.51-1.73,5.78-2.63a9.37,9.37,0,0,1,3.31-.7,6.19,6.19,0,0,1,2.67.61,6,6,0,0,1,1.93,1.67,1.41,1.41,0,0,0-.3-.66,4.39,4.39,0,0,0-1.46-1.33,6.3,6.3,0,0,0-2.83-.76,9.27,9.27,0,0,0-3.5.69c-2.35.94-4.23,2.18-5.73,2.77S655.16,382.37,655.18,382.45Z"/><path class="cls-3" d="M656.71,389.34a7.47,7.47,0,0,0,2,.64,35.38,35.38,0,0,0,4.94.83,36.11,36.11,0,0,0,5,.15,6.87,6.87,0,0,0,2.06-.25c0-.15-3.16,0-7-.4S656.74,389.19,656.71,389.34Z"/><rect class="cls-4" x="565.06" y="46.06" width="96.36" height="63.36"/><rect class="cls-2" x="568.41" y="48.65" width="89.61" height="57.93"/><rect class="cls-4" x="598.6" y="69.76" width="29.23" height="15.94"/></g><g id="Floor"><path class="cls-5" d="M688.5,403.81c0,.14-154.14.26-344.24.26S0,404,0,403.81s154.1-.26,344.26-.26S688.5,403.66,688.5,403.81Z"/></g><g id="Device"><path class="cls-1" d="M259.34,0H465.7a0,0,0,0,1,0,0V196.54a16.22,16.22,0,0,1-16.22,16.22H259.34a0,0,0,0,1,0,0V0A0,0,0,0,1,259.34,0Z"/><path class="cls-6" d="M448.66,63.32c0,.43-37.3.78-83.3.78s-83.3-.35-83.3-.78,37.29-.78,83.3-.78S448.66,62.89,448.66,63.32Z"/><path class="cls-6" d="M366.35,77.73c0,.43-18.43.78-41.15.78S284,78.16,284,77.73,302.46,77,325.2,77,366.35,77.3,366.35,77.73Z"/><path class="cls-6" d="M399.27,76.4c0,.43-4.88.78-10.9.78s-10.9-.35-10.9-.78,4.88-.78,10.9-.78S399.27,76,399.27,76.4Z"/><path class="cls-6" d="M453.11,75.51c0,.43-9.66.78-21.58.78S410,75.94,410,75.51s9.66-.78,21.58-.78S453.11,75.08,453.11,75.51Z"/><path class="cls-6" d="M359.48,91.53c0,.43-17.33.78-38.71.78s-38.71-.35-38.71-.78,17.33-.79,38.71-.79S359.48,91.09,359.48,91.53Z"/><path class="cls-6" d="M453.11,91.13c0,.43-18.93.78-42.27.78s-42.26-.35-42.26-.78,18.92-.78,42.26-.78S453.11,90.7,453.11,91.13Z"/><path class="cls-6" d="M453.11,105c0,.43-8.43.78-18.82.78s-18.82-.35-18.82-.78,8.43-.78,18.82-.78S453.11,104.58,453.11,105Z"/><path class="cls-7" d="M375.25,47.87c0,.43-20.42.78-45.6.78S284,48.3,284,47.87s20.42-.78,45.61-.78S375.25,47.44,375.25,47.87Z"/><rect class="cls-5" x="88.01" y="119.17" width="428.67" height="283.47" rx="14.57"/><path class="cls-5" d="M70.69,381.68H535.11a0,0,0,0,1,0,0v7a17.8,17.8,0,0,1-17.8,17.8H88.48a17.8,17.8,0,0,1-17.8-17.8v-7A0,0,0,0,1,70.69,381.68Z"/><rect class="cls-6" x="100.12" y="130.43" width="404.45" height="239.39"/><path class="cls-6" d="M260.69,381.68a3.32,3.32,0,0,1,.44,0h1.36l5.29,0,19.59-.08,65.53-.14h.48l-.24.41-2.6,4.46c-.94,1.6-1.87,3.19-2.75,4.71l-.09.14h-.15l-81.1-.15h-.07l0-.06c-1.85-3-3.28-5.32-4.25-6.91-.46-.75-.82-1.33-1.07-1.75s-.34-.57-.34-.57l.4.6,1.14,1.76,4.33,6.74-.11-.06,81.1-.16-.24.14c.88-1.52,1.81-3.11,2.75-4.71s1.77-3,2.6-4.45l.24.41-65.26-.14L268,381.73l-5.36,0h-1.9Z"/><line class="cls-5" x1="88.01" y1="381.68" x2="516.68" y2="381.68"/><path class="cls-6" d="M516.68,381.67c0,.15-96,.27-214.32.27S88,381.82,88,381.67s96-.26,214.35-.26S516.68,381.53,516.68,381.67Z"/><path class="cls-5" d="M407.28,82.62h0a12,12,0,0,1,12,12v24.57h-35.8V96.5a13.88,13.88,0,0,1,13.87-13.88Z"/><path class="cls-5" d="M407.28,82.62c0,.15-33.79.23-75.45.2s-75.46-.19-75.46-.33,33.78-.23,75.46-.19S407.28,82.48,407.28,82.62Z"/><path class="cls-2" d="M407,82.59,392,82.49l-21.69.13H211a24.5,24.5,0,0,0-24.5,24.5V370.39H392.86V96.05C393.46,82.62,407,82.59,407,82.59Z"/><path class="cls-5" d="M407,82.59l-124.42.28-62.22,0h-7.77c-1.31,0-2.58,0-3.86.12a26.84,26.84,0,0,0-3.77.68,24.06,24.06,0,0,0-16.5,14.8c-.2.61-.48,1.19-.62,1.82l-.48,1.85a27.28,27.28,0,0,0-.44,3.81c-.11,5.15,0,10.36,0,15.54L187,370.39l-.5-.49,206.36.13-.36.36.1-148,.11-74,.08-37,0-9.25V97.52a16.11,16.11,0,0,1,.1-2.31,13.48,13.48,0,0,1,.36-2.29,12.25,12.25,0,0,1,5-7.53,14.5,14.5,0,0,1,4.15-2A17.51,17.51,0,0,1,407,82.59Zm0,0a17.89,17.89,0,0,0-4.53.81,14.47,14.47,0,0,0-4.14,2,12.18,12.18,0,0,0-5,7.52,12.46,12.46,0,0,0-.35,2.27,16.17,16.17,0,0,0-.09,2.31v4.62l0,9.25.07,37,.12,74,.1,148v.37h-.36l-206.36.13H186v-.5l.17-248.85c0-5.19,0-10.36.07-15.57a26.94,26.94,0,0,1,.46-3.9l.49-1.91c.15-.64.43-1.24.64-1.86a24.65,24.65,0,0,1,16.94-15.15,25.42,25.42,0,0,1,3.86-.7c1.32-.07,2.63-.15,3.92-.12h7.77l62.22,0Z"/><path class="cls-7" d="M217.59,130h36l.05,12.06h-1.72q-.84-6.47-4.85-8.75a14.91,14.91,0,0,0-6.71-1.38v31.51c0,2.2.38,3.66,1.15,4.38s2.37,1.08,4.8,1.08v1.52H225v-1.52c2.34,0,3.89-.36,4.66-1.09s1.16-2.19,1.16-4.37V131.92a15.35,15.35,0,0,0-6.72,1.38q-4.29,2.34-4.85,8.75h-1.72Z"/><path class="cls-7" d="M364.54,132.71c0,.43-19.86.78-44.36.78s-44.37-.35-44.37-.78,19.86-.78,44.37-.78S364.54,132.28,364.54,132.71Z"/><path class="cls-6" d="M311.9,146.89c0,.43-7.68.78-17.15.78s-17.16-.35-17.16-.78,7.68-.78,17.16-.78S311.9,146.46,311.9,146.89Z"/><path class="cls-6" d="M268.66,190.13c0,.43-14.58.78-32.57.78s-32.58-.35-32.58-.78,14.58-.78,32.58-.78S268.66,189.7,268.66,190.13Z"/><path class="cls-7" d="M342.44,190.13c0,.43-14.59.78-32.58.78s-32.57-.35-32.57-.78,14.58-.78,32.57-.78S342.44,189.7,342.44,190.13Z"/><path class="cls-6" d="M268.66,201.68c0,.43-14.58.78-32.57.78s-32.58-.35-32.58-.78,14.58-.78,32.58-.78S268.66,201.25,268.66,201.68Z"/><path class="cls-7" d="M268.66,213.23c0,.43-14.58.78-32.57.78s-32.58-.35-32.58-.78,14.58-.78,32.58-.78S268.66,212.8,268.66,213.23Z"/><path class="cls-6" d="M311.9,170.41c0,.43-7.68.78-17.15.78s-17.16-.35-17.16-.78,7.68-.78,17.16-.78S311.9,170,311.9,170.41Z"/><path class="cls-6" d="M371.4,190.13c0,.43-5.12.78-11.44.78s-11.43-.35-11.43-.78,5.12-.78,11.43-.78S371.4,189.7,371.4,190.13Z"/><path class="cls-6" d="M377.52,146.89c0,.43-13.18.78-29.43.78s-29.44-.35-29.44-.78,13.18-.78,29.44-.78S377.52,146.46,377.52,146.89Z"/><path class="cls-6" d="M374.86,158.15c0,.43-21.77.78-48.63.78s-48.64-.35-48.64-.78,21.78-.78,48.64-.78S374.86,157.72,374.86,158.15Z"/><path class="cls-6" d="M371.4,201.68c0,.43-21.07.78-47,.78s-47.06-.35-47.06-.78,21.06-.78,47.06-.78S371.4,201.25,371.4,201.68Z"/><path class="cls-7" d="M371.4,235.11c0,.43-19.77.78-44.15.78s-44.16-.35-44.16-.78,19.76-.78,44.16-.78S371.4,234.68,371.4,235.11Z"/><path class="cls-6" d="M371.4,246.35c0,.43-19.77.78-44.15.78s-44.16-.35-44.16-.78,19.76-.78,44.16-.78S371.4,245.92,371.4,246.35Z"/><path class="cls-6" d="M371.4,257.59c0,.43-19.77.78-44.15.78s-44.16-.35-44.16-.78,19.76-.78,44.16-.78S371.4,257.16,371.4,257.59Z"/><path class="cls-6" d="M371.4,268.83c0,.43-19.77.78-44.15.78s-44.16-.35-44.16-.78,19.76-.78,44.16-.78S371.4,268.4,371.4,268.83Z"/><path class="cls-6" d="M333.93,280.07c0,.22-2.85.41-7.45.55s-11,.23-18,.23-13.38-.09-18-.23-7.44-.33-7.44-.55,2.84-.41,7.44-.55,11-.23,18-.23,13.37.09,18,.23S333.93,279.86,333.93,280.07Z"/><path class="cls-6" d="M355.4,213.83c0,.43-17,.78-38,.78s-38-.35-38-.78,17-.78,38-.78S355.4,213.4,355.4,213.83Z"/><polygon class="cls-4" points="267.12 236.38 271.81 323.14 186.97 333.76 186.91 235.65 267.12 236.38"/><rect class="cls-3" x="168.52" y="219.19" width="92.04" height="115.12" transform="translate(-63.58 489.51) rotate(-89.63)"/><rect class="cls-7" x="174.24" y="223.23" width="80.45" height="107.03" transform="translate(-63.66 489.44) rotate(-89.63)"/><g class="cls-8"><polygon points="160.69 316.63 198.4 266.87 221.35 298.3 237.17 281.68 267.72 317.32 160.69 316.63"/></g><g class="cls-8"><path d="M231.42,261a8.43,8.43,0,1,1-8.37-8.48A8.42,8.42,0,0,1,231.42,261Z"/></g><path class="cls-5" d="M282.89,344.86a1.78,1.78,0,1,1-1.78-1.78A1.78,1.78,0,0,1,282.89,344.86Z"/><path class="cls-5" d="M293.46,344.86a1.78,1.78,0,1,1-1.78-1.78A1.78,1.78,0,0,1,293.46,344.86Z"/><path class="cls-5" d="M304,344.86a1.78,1.78,0,1,1-1.78-1.78A1.78,1.78,0,0,1,304,344.86Z"/><path class="cls-7" d="M342.93,303.49c0,.43-14.58.78-32.57.78s-32.58-.35-32.58-.78,14.59-.78,32.58-.78S342.93,303.06,342.93,303.49Z"/><path class="cls-6" d="M371.89,315c0,.43-21.06.78-47.05.78s-47.06-.35-47.06-.78,21.07-.78,47.06-.78S371.89,314.61,371.89,315Z"/></g><g id="Box"><rect class="cls-3" x="585.72" y="327.55" width="55.44" height="69.34" transform="matrix(0.01, -1, 1, 0.01, 247.28, 973.32)"/><rect class="cls-7" x="589.16" y="329.99" width="48.46" height="64.47" transform="translate(247.24 973.28) rotate(-89.63)"/><polygon class="cls-9" points="581 386.25 603.71 356.27 617.54 375.2 627.07 365.19 645.47 386.66 581 386.25"/><g class="cls-8"><path d="M623.61,352.71a5.08,5.08,0,1,1-5.05-5.11A5.08,5.08,0,0,1,623.61,352.71Z"/></g><rect class="cls-3" x="575.55" y="321.76" width="55.44" height="69.34" transform="translate(242.97 957.4) rotate(-89.63)"/><rect class="cls-7" x="578.99" y="324.2" width="48.46" height="64.47" transform="translate(242.92 957.35) rotate(-89.63)"/><polygon class="cls-9" points="570.83 380.46 593.54 350.48 607.37 369.41 616.9 359.4 635.3 380.87 570.83 380.46"/><g class="cls-8"><path d="M613.44,346.92a5.08,5.08,0,1,1-5.05-5.11A5.08,5.08,0,0,1,613.44,346.92Z"/></g><rect class="cls-3" x="566.49" y="316.98" width="55.44" height="69.34" transform="translate(238.75 943.59) rotate(-89.63)"/><rect class="cls-7" x="569.94" y="319.41" width="48.46" height="64.47" transform="translate(238.71 943.55) rotate(-89.63)"/><polygon class="cls-9" points="561.78 375.67 584.49 345.69 598.32 364.63 607.84 354.62 626.25 376.09 561.78 375.67"/><g class="cls-8"><path d="M604.38,342.13a5.08,5.08,0,1,1-5-5.11A5.08,5.08,0,0,1,604.38,342.13Z"/></g><rect class="cls-3" x="556.32" y="322.93" width="55.44" height="69.34" transform="matrix(0.01, -1, 1, 0.01, 222.69, 939.34)"/><rect class="cls-6" x="559.77" y="325.37" width="48.46" height="64.47" transform="translate(222.65 939.29) rotate(-89.63)"/><polygon class="cls-9" points="551.61 381.63 574.32 351.65 588.15 370.58 597.67 360.57 616.08 382.04 551.61 381.63"/><g class="cls-8"><path d="M594.21,348.09a5.08,5.08,0,1,1-5-5.11A5.07,5.07,0,0,1,594.21,348.09Z"/></g><rect class="cls-5" x="618.89" y="350.28" width="40.03" height="53.53"/><path class="cls-7" d="M542.22,350.28v53.53h80.07V350.28ZM590.77,363h-17a3.69,3.69,0,0,1,0-7.37h17a3.69,3.69,0,0,1,0,7.37Z"/></g><g id="Character"><path class="cls-6" d="M490.3,398.21l-74.45-4.56c-.47-1.06-.79-1.68-.79-1.68l-20.18.4-6.56-.4-.26.53-67.74,1.35c-13.51,0-27.71,8.24-27.71,18.77-.17,10,4.68,20.9,16.79,20.65l92.29-.31,92.3.31c12.1.25,15.3-7,15.31-15.71C510.72,401.44,500.62,398.34,490.3,398.21Z"/><path class="cls-5" d="M317.87,433.28l.44,0,1.31,0,5-.05,18.57-.08,62-.08-.26.27c-.13-2-.26-4.18-.4-6.37-.28-4.46-.55-8.85-.81-13l.23.24-57.09-6.35-16.92-1.94-4.56-.54-1.18-.16-.4-.07.41,0,1.18.11,4.57.46,16.93,1.78L404,413.62l.22,0v.22c.26,4.17.54,8.57.82,13,.13,2.18.27,4.35.4,6.37v.28h-.27l-62-.08-18.57-.08-5-.05-1.31,0A3.72,3.72,0,0,1,317.87,433.28Z"/><path class="cls-5" d="M336.9,406.8c-.06.07-1-.68-2.61-1.67a27.6,27.6,0,0,0-14.11-4.05c-1.9,0-3.08.11-3.09,0a2.73,2.73,0,0,1,.81-.19,17.44,17.44,0,0,1,2.28-.2,24.44,24.44,0,0,1,14.3,4.11,16,16,0,0,1,1.82,1.39C336.71,406.56,336.92,406.77,336.9,406.8Z"/><path class="cls-5" d="M484.52,402.84c0,.14-14.65,3.69-32.8,7.93s-32.88,7.57-32.91,7.43,14.65-3.7,32.8-7.94S484.49,402.7,484.52,402.84Z"/><path class="cls-5" d="M472.1,401.41a29.19,29.19,0,0,0-5.75,2.75,30.56,30.56,0,0,0-4.68,4.34,5.29,5.29,0,0,1,1-1.63,15.31,15.31,0,0,1,7.54-5.13A4.85,4.85,0,0,1,472.1,401.41Z"/><path class="cls-10" d="M444.39,316.87,468,357.93a17.41,17.41,0,0,1,.48,16.49h0a17.43,17.43,0,0,1-16.09,9.63l-36.22-1-.95-13.17,31.89-6.11-21.5-37.21Z"/><path class="cls-10" d="M356.49,387.13l33.3,8.82.73-10-30.69-17.82,22.41-41.6-18.81-9.67-23.58,41.06h0A19.22,19.22,0,0,0,351,385.36Z"/><path class="cls-7" d="M434.38,343.23l22.76-12A115.7,115.7,0,0,0,447.39,315,50.06,50.06,0,0,0,417,295.82h0l-26.18.31a35.18,35.18,0,0,0-9.34,2.15l0-.1c-14.21,3.13-30,34.12-30,34.12l20.71,10.91.46,3.25a22.1,22.1,0,0,0,5.39,11.61l-6,39.67,67.22,1.39-8.56-28.41Z"/><path class="cls-5" d="M378.69,358.29a5.4,5.4,0,0,1-1-.76,14.29,14.29,0,0,1-2.28-2.55,16.64,16.64,0,0,1-2.81-10.82,35.82,35.82,0,0,1,1.54-6c.6-1.81,1.21-3.41,1.75-4.75s1-2.4,1.32-3.14a5,5,0,0,1,.58-1.11,6.57,6.57,0,0,1-.39,1.19c-.31.85-.7,1.92-1.17,3.19s-1.06,3-1.63,4.77a36.58,36.58,0,0,0-1.48,5.94,17.33,17.33,0,0,0,.56,6,16.31,16.31,0,0,0,2,4.53A29.34,29.34,0,0,0,378.69,358.29Z"/><polygon class="cls-5" points="368.62 407.32 364.82 363.07 446.7 363.07 441.28 407.87 368.62 407.32"/><path class="cls-2" d="M411,386.67a5.22,5.22,0,1,1-5.22-5.21A5.22,5.22,0,0,1,411,386.67Z"/><polygon class="cls-10" points="404.33 415.97 418.23 417.91 418.23 433.02 405.45 432.69 404.33 415.97"/><path class="cls-7" d="M418.23,417.91h6.25a7,7,0,0,1,3.47.92l3.29,1.91a54.23,54.23,0,0,0,5.76,2.75c3.8,1.22,10.2,2.86,11.54,3.9,3.85,3,2.68,6.47.57,6.84-1.86.32-30.88-1.21-30.88-1.21Z"/><path class="cls-5" d="M428.5,431.77a9.93,9.93,0,0,1-.67-3.93,10.09,10.09,0,0,1,.43-4,33.68,33.68,0,0,1,.09,3.95A33.62,33.62,0,0,1,428.5,431.77Z"/><path class="cls-5" d="M431.47,431.69a12.58,12.58,0,0,1-.24-3.61,13.13,13.13,0,0,1,.29-3.61,12.53,12.53,0,0,1,.24,3.61A13.13,13.13,0,0,1,431.47,431.69Z"/><path class="cls-5" d="M435,432.28a13.57,13.57,0,0,1-.55-3.69,13.73,13.73,0,0,1,0-3.74,26.79,26.79,0,0,1,.58,7.43Z"/><path class="cls-5" d="M425.8,427.75a4.57,4.57,0,0,1-1.29-.41,11.75,11.75,0,0,1-3.12-1.93c-.29-.25-.59-.53-.89-.83a3.7,3.7,0,0,1-.8-1.13,1.56,1.56,0,0,1,.18-1.55,1.14,1.14,0,0,1,.77-.43,2,2,0,0,1,.85.09,6.23,6.23,0,0,1,1.3,11.08,4,4,0,0,1-1.43.64,1.72,1.72,0,0,1-.81,0,1.11,1.11,0,0,1-.64-.56,1.59,1.59,0,0,1,.19-1.44,4.53,4.53,0,0,1,.8-1,9.58,9.58,0,0,1,3.07-2,4,4,0,0,1,1.3-.37s-.45.18-1.21.55a10.3,10.3,0,0,0-2.9,2.09,4.4,4.4,0,0,0-.71.9,1.19,1.19,0,0,0-.15,1.05.83.83,0,0,0,1,.34,3.64,3.64,0,0,0,1.25-.59A5.79,5.79,0,0,0,421.35,422a1,1,0,0,0-1.12.16,1.13,1.13,0,0,0-.12,1.11,6.26,6.26,0,0,0,1.52,1.85A17,17,0,0,0,425.8,427.75Z"/><path class="cls-5" d="M449.11,434.23a3.85,3.85,0,0,0,.76-1,3.59,3.59,0,0,0-.41-3.16,7,7,0,0,0-3.86-2.91c-1.77-.63-3.88-.94-6-1.6a41.93,41.93,0,0,1-10.33-4.71c-1.23-.78-2.17-1.48-2.81-2a5.34,5.34,0,0,1-.95-.84,6.37,6.37,0,0,1,1.07.68c.67.44,1.64,1.09,2.88,1.83a46.89,46.89,0,0,0,10.29,4.52c2.09.65,4.18,1,6,1.65a7.25,7.25,0,0,1,4,3.19,3.7,3.7,0,0,1,.27,3.42,2.18,2.18,0,0,1-.64.71C449.22,434.2,449.12,434.24,449.11,434.23Z"/><path class="cls-3" d="M439.64,306.69s0,.07,0,.21l0,.62c-.06.59-.13,1.39-.22,2.42-.22,2.15-.53,5.22-.92,9.08l0,.23-.21-.11-12.07-6.35.29-.08-6.56,11.06-.14.24-.22-.17-11-8.47h.32L404,319.14l-6.56,5.13-.24.19-.15-.27-6.24-11.55.31.1-13.25,5.91-.24.1,0-.26-2-11.78.2.12-7.58,2.89-2,.75-.52.18-.18.05s.05,0,.16-.09l.51-.22,2-.82,7.53-3,.17-.07,0,.18c.58,3.29,1.29,7.23,2.1,11.76l-.28-.15,13.21-6,.21-.09.1.2L397.51,324l-.39-.08,6.55-5.14,4.82-3.77.15-.12.16.12,11,8.49-.36.07c2.37-4,4.6-7.69,6.61-11l.1-.18.18.1,12,6.45-.23.12,1.06-9.06c.12-1,.23-1.83.3-2.41,0-.25.06-.45.09-.62A1.81,1.81,0,0,1,439.64,306.69Z"/><path class="cls-3" d="M449.36,317.82a1.09,1.09,0,0,1-.06.29c-.05.22-.12.5-.21.85-.2.78-.48,1.87-.85,3.27-.78,2.88-1.89,7-3.28,12.17l0,.2-.19-.09-14.1-6.77.28-.07c-3.61,5.13-7.61,10.85-11.89,16.94l-.17.25-.21-.22-11.42-11.57-2.4-2.43.32,0-15.39,9.65-.22.13-.12-.22-8.3-14.65.26.09-15.82,5.45-.15.05-.05-.15c-1.5-4.34-2.69-7.79-3.52-10.18l-.91-2.71c-.09-.29-.16-.52-.22-.7a.72.72,0,0,1-.06-.24,1.17,1.17,0,0,1,.1.23l.27.68c.23.64.56,1.53,1,2.68.85,2.38,2.09,5.81,3.64,10.14l-.2-.1,15.79-5.56.17-.06.09.16c2.55,4.48,5.36,9.38,8.35,14.62l-.35-.08,15.38-9.67.17-.12.15.15q1.19,1.22,2.4,2.43L419,344.29l-.39,0c4.29-6.08,8.32-11.78,11.93-16.91l.11-.15.17.08,14.06,6.86-.24.11c1.46-5.14,2.62-9.26,3.43-12.13l.94-3.24c.11-.35.19-.63.26-.84A1.33,1.33,0,0,1,449.36,317.82Z"/><path class="cls-5" d="M439.27,248.06a14.68,14.68,0,0,1-11.17-3.53c3.64,1.84,8.49-.68,9.77-4.56s.23-11.08-2.95-13.64A12.63,12.63,0,0,0,424,224c-3.75,1-7.72,6.71-8.95,10.39l.07.11c-.58-.23-1.16-.44-1.74-.64a30,30,0,0,0-12.95-1.56,21,21,0,0,0-11.83,5.2L414,278.35c4.62-.41,8.71-3.53,11.13-7.48s3.35-8.66,3.58-13.29c.06-1.16.05-2.34,0-3.51l8.18,1.31a18.29,18.29,0,0,0-5.43-4.86A6.81,6.81,0,0,0,439.27,248.06Z"/><path class="cls-10" d="M407.13,311.49a12.8,12.8,0,0,0,12.52-12.64l.59-50.85h0a4.05,4.05,0,0,0-3.63-4.1l-21.47-5.43c-6.88-.73-11.45,7.74-11.89,14.65-.48,7.66-.77,17.05.14,22.77,1.83,11.5,10.65,13,10.65,13s0,4.45,0,9.9a12.79,12.79,0,0,0,13.06,12.73Z"/><path class="cls-5" d="M387.71,260.56a1.48,1.48,0,0,0,1.43,1.49,1.41,1.41,0,0,0,1.52-1.33,1.49,1.49,0,0,0-1.42-1.49A1.42,1.42,0,0,0,387.71,260.56Z"/><path class="cls-5" d="M385.29,258c.18.19,1.3-.64,2.89-.63s2.75.79,2.92.6-.1-.43-.61-.8a4.06,4.06,0,0,0-2.34-.73,3.87,3.87,0,0,0-2.3.75C385.36,257.56,385.2,257.91,385.29,258Z"/><path class="cls-5" d="M402.82,260.56a1.47,1.47,0,0,0,1.42,1.49,1.4,1.4,0,0,0,1.52-1.33,1.48,1.48,0,0,0-1.42-1.49A1.41,1.41,0,0,0,402.82,260.56Z"/><path class="cls-5" d="M400.89,258.29c.19.19,1.31-.63,2.89-.63s2.76.8,2.93.61-.1-.44-.61-.81a4.06,4.06,0,0,0-2.34-.72,3.94,3.94,0,0,0-2.3.74C401,257.86,400.81,258.21,400.89,258.29Z"/><path class="cls-5" d="M395.13,270.07a10.66,10.66,0,0,0-2.58-.47c-.4,0-.79-.12-.85-.4A2,2,0,0,1,392,268l1.2-3.09c1.66-4.39,2.87-8,2.69-8.07s-1.67,3.44-3.34,7.84c-.4,1.08-.78,2.12-1.15,3.1a2.44,2.44,0,0,0-.21,1.6,1,1,0,0,0,.67.59,2.62,2.62,0,0,0,.69.09A10.31,10.31,0,0,0,395.13,270.07Z"/><path class="cls-11" d="M394,288.86a29.22,29.22,0,0,0,15.4-4.11s-3.73,7.9-15.25,6.83Z"/><path class="cls-11" d="M395.8,273.9a2.88,2.88,0,0,1,2.57-1.07,2.63,2.63,0,0,1,1.8,1,1.65,1.65,0,0,1,.13,1.89,1.92,1.92,0,0,1-2.08.53,6,6,0,0,1-2-1.21,1.87,1.87,0,0,1-.46-.47.53.53,0,0,1,0-.59"/><path class="cls-5" d="M399.81,271.17c-.26,0-.27,1.71-1.74,2.93s-3.31,1-3.33,1.27.41.34,1.19.36a4.25,4.25,0,0,0,2.77-1,3.75,3.75,0,0,0,1.35-2.46C400.12,271.58,399.92,271.16,399.81,271.17Z"/><path class="cls-5" d="M400.18,255.51c.16.43,1.74.23,3.61.45s3.37.74,3.61.35c.11-.19-.15-.59-.76-1a6.05,6.05,0,0,0-2.68-.94,6.15,6.15,0,0,0-2.82.33C400.46,255,400.11,255.31,400.18,255.51Z"/><path class="cls-5" d="M385.51,255.07c.28.36,1.37,0,2.69,0s2.43.25,2.68-.13c.11-.18-.06-.54-.55-.89a3.88,3.88,0,0,0-4.33.14C385.54,254.52,385.38,254.89,385.51,255.07Z"/><path class="cls-10" d="M419,262.3a2.9,2.9,0,0,1,3,.15,5.34,5.34,0,0,1-3.36,9.91"/><path class="cls-11" d="M419.77,268.93c0-.08.44.1,1-.16a2,2,0,0,0,1-2,2,2,0,0,0-1.22-1.85c-.58-.24-1-.12-1-.21s.39-.36,1.15-.19a2.05,2.05,0,0,1,1.13.7,2.59,2.59,0,0,1,.57,1.51,2.29,2.29,0,0,1-1.44,2.4C420.13,269.37,419.7,269,419.77,268.93Z"/><path class="cls-6" d="M422.91,271.26s.2.11.53.37l1.41,1.15,5,4.22.17.14-.14.17c-1.85,2.22-3.91,5-6.23,7.9-.52.66-1,1.3-1.55,1.9l-.43.5,0-.66c-.21-4.68-.37-8.83-.46-11.8,0-1.42-.06-2.6-.08-3.51a7,7,0,0,1,0-1.28,6.34,6.34,0,0,1,.15,1.27c.07.91.15,2.09.24,3.5.19,3,.41,7.12.64,11.8l-.46-.15,1.55-1.89c2.31-2.9,4.39-5.66,6.29-7.87l0,.32L424.68,273l-1.33-1.25A2.57,2.57,0,0,1,422.91,271.26Z"/><path class="cls-5" d="M399.64,233.44a42.19,42.19,0,0,0-8.39.92,14,14,0,0,0-7.25,4.08,8.55,8.55,0,0,0-2,7.85,6.18,6.18,0,0,0,6.37,4.44c2.13-.28,4.16-1.85,6.21-1.23s3,2.95,5,3.32,3.71-1.4,5.7-1.57c2.2-.19,4.1,1.61,5.08,3.58s1.34,4.2,2.32,6.18a5.05,5.05,0,0,0,3,2.82,4.09,4.09,0,0,0,3.59-1,8.41,8.41,0,0,0,2.1-3.22,17.87,17.87,0,0,0-14.52-24.49"/><path class="cls-7" d="M427.68,245.66c-.09,0-.36-.93-1.07-2.33a16.7,16.7,0,0,0-8.9-8.05c-1.47-.56-2.45-.73-2.43-.82a2,2,0,0,1,.7,0,9.89,9.89,0,0,1,1.86.44,15.19,15.19,0,0,1,9.11,8.23,10.76,10.76,0,0,1,.62,1.8A2.09,2.09,0,0,1,427.68,245.66Z"/><path class="cls-6" d="M436.48,228.81a19.32,19.32,0,0,0-2.77-.86,11.1,11.1,0,0,0-6.75,1,15.15,15.15,0,0,0-5.22,4.54c-1.06,1.45-1.56,2.46-1.64,2.42a2.25,2.25,0,0,1,.27-.74,16.11,16.11,0,0,1,1.07-1.89,14,14,0,0,1,5.29-4.79,10.67,10.67,0,0,1,7-.91,7.5,7.5,0,0,1,2,.76C436.27,228.6,436.5,228.78,436.48,228.81Z"/><path class="cls-6" d="M425.42,242.33a7.1,7.1,0,0,1,0,2.36A18.63,18.63,0,0,1,421,255.07a7.07,7.07,0,0,1-1.73,1.61,30.1,30.1,0,0,0,4.29-6.66A30.81,30.81,0,0,0,425.42,242.33Z"/><path class="cls-6" d="M425.75,242.57a2,2,0,0,1,.28.66,10.48,10.48,0,0,1,.45,1.9,16.24,16.24,0,0,1-3.08,12.2,12.61,12.61,0,0,1-1.3,1.46c-.34.31-.54.47-.56.44s.65-.78,1.56-2.11a18.28,18.28,0,0,0,2.56-5.71,18,18,0,0,0,.45-6.24C426,243.57,425.66,242.6,425.75,242.57Z"/></g><g id="Speech_Bubble" data-name="Speech Bubble"><path class="cls-1" d="M456,245.19a4.71,4.71,0,1,0,2.15-.16"/><path class="cls-1" d="M469.53,225.55a5.4,5.4,0,1,0,2.47-.19"/><path class="cls-3" d="M498.4,138.94c-9-.76-18.2,1.26-24.4,7.89A30.65,30.65,0,0,0,466.2,172c-9.62,4-14.87,16.24-11.13,26s15.83,15.3,25.65,11.83a34.79,34.79,0,0,0,59.16,9.42c9.44,2.13,20,2,28-3.55s11.52-17.75,5.48-25.31c10.87-2.64,16.39-16.22,13.17-26.93S573.61,145,563.31,140.62c-6.82-2.88-15.31-4.38-21.12.19a26.91,26.91,0,0,0-43.79-1.87"/><path class="cls-5" d="M498.4,138.94s.18-.24.55-.7a24.07,24.07,0,0,1,1.75-1.93,27.18,27.18,0,0,1,8.36-5.61,27.72,27.72,0,0,1,7.06-2,26,26,0,0,1,8.75.27,27.77,27.77,0,0,1,9.36,3.79,27.26,27.26,0,0,1,8.11,8l-.26-.05a14.67,14.67,0,0,1,8.56-2.93,27.8,27.8,0,0,1,9.64,1.53,50.56,50.56,0,0,1,9.44,4.34,44.15,44.15,0,0,1,8.76,6.6,32.8,32.8,0,0,1,6.76,9.3,27.38,27.38,0,0,1,1.93,5.66,23.27,23.27,0,0,1,.4,6.08,24,24,0,0,1-3.9,11.79,18.85,18.85,0,0,1-4.4,4.69,17.51,17.51,0,0,1-5.9,2.83l.14-.4a14.33,14.33,0,0,1,2.69,5.71,17.25,17.25,0,0,1,.15,6.41,21.12,21.12,0,0,1-6,11.53,24.3,24.3,0,0,1-11.91,6.08,40.1,40.1,0,0,1-13.7.41c-1.67-.21-3.32-.53-4.94-.88l.25-.09a34.8,34.8,0,0,1-49.64,4.23,35.32,35.32,0,0,1-9.94-13.72l.3.13A20.91,20.91,0,0,1,464,208.22a19.69,19.69,0,0,1-9.83-12.45,21.15,21.15,0,0,1,2-14.67,20.37,20.37,0,0,1,9.9-9.3L466,172a30.75,30.75,0,0,1,.63-11.87,31.11,31.11,0,0,1,4.31-9.68,29.82,29.82,0,0,1,3-3.75,24.31,24.31,0,0,1,3.35-2.91,24.6,24.6,0,0,1,6.89-3.46,33.5,33.5,0,0,1,10.51-1.58,34.06,34.06,0,0,1,3.7.2s-.32,0-.94,0-1.54-.07-2.76-.06a33.85,33.85,0,0,0-10.45,1.65,24.72,24.72,0,0,0-6.81,3.48,23.8,23.8,0,0,0-3.3,2.89,30,30,0,0,0-2.94,3.73,31.28,31.28,0,0,0-4.24,9.59,30.58,30.58,0,0,0-.58,11.75l0,.14-.13,0a20.08,20.08,0,0,0-9.69,9.15,20.68,20.68,0,0,0-2,14.39,19.24,19.24,0,0,0,9.63,12.15,20.43,20.43,0,0,0,16.4,1.7l.22-.07.09.21a35.34,35.34,0,0,0,25.44,21.18A35.22,35.22,0,0,0,539.68,219l.1-.12.16,0c1.61.35,3.24.67,4.9.87a39.79,39.79,0,0,0,13.52-.39A23.88,23.88,0,0,0,570,213.44a20.56,20.56,0,0,0,5.83-11.24,15,15,0,0,0-2.73-11.73l-.24-.3.38-.1a16.84,16.84,0,0,0,5.71-2.73,18.43,18.43,0,0,0,4.29-4.57,23.68,23.68,0,0,0,3.45-17.51,27.08,27.08,0,0,0-1.88-5.55,32.21,32.21,0,0,0-6.66-9.18,43.82,43.82,0,0,0-8.66-6.56,50.44,50.44,0,0,0-9.36-4.32,27.55,27.55,0,0,0-9.5-1.54A14.23,14.23,0,0,0,542.3,141l-.16.12-.1-.16a27.22,27.22,0,0,0-8-7.89,27.55,27.55,0,0,0-9.25-3.78,25.55,25.55,0,0,0-8.66-.3,27.8,27.8,0,0,0-15.38,7.44,24.87,24.87,0,0,0-1.78,1.9C498.61,138.72,498.4,138.94,498.4,138.94Z"/><path class="cls-6" d="M560.24,170.11c0,.44-17.74.79-39.61.79s-39.61-.35-39.61-.79,17.73-.78,39.61-.78S560.24,169.68,560.24,170.11Z"/><path class="cls-6" d="M560.24,178.71c0,.43-17.74.78-39.61.78s-39.61-.35-39.61-.78,17.73-.78,39.61-.78S560.24,178.28,560.24,178.71Z"/><path class="cls-6" d="M560.24,187.3c0,.43-17.74.78-39.61.78S481,187.73,481,187.3s17.73-.78,39.61-.78S560.24,186.87,560.24,187.3Z"/><path class="cls-6" d="M560.24,195.89c0,.44-17.74.79-39.61.79s-39.61-.35-39.61-.79,17.73-.78,39.61-.78S560.24,195.46,560.24,195.89Z"/></g></g></svg>