<svg xmlns="http://www.w3.org/2000/svg" viewBox="0 0 500 372.61"><defs><style>.cls-1{isolation:isolate;}.cls-2{fill:#ebebeb;}.cls-3{fill:#f0f0f0;}.cls-4{fill:#f5f5f5;}.cls-12,.cls-13,.cls-5{fill:#fff;}.cls-6,.cls-7{fill:#e6e6e6;}.cls-6{opacity:0.7;mix-blend-mode:multiply;}.cls-8{fill:#fafafa;}.cls-11,.cls-9{fill:#407bff;}.cls-10{opacity:0.4;}.cls-11,.cls-19{opacity:0.3;}.cls-12{opacity:0.6;}.cls-13{opacity:0.5;}.cls-14,.cls-18{fill:#263238;}.cls-15{fill:#ffc3bd;}.cls-16{fill:#ed847e;}.cls-17{opacity:0.2;}.cls-18{opacity:0.8;}</style></defs><g class="cls-1"><g id="Capa_2" data-name="Capa 2"><g id="Background_Complete" data-name="Background Complete"><rect class="cls-2" y="327.45" width="500" height="0.25"/><path class="cls-2" d="M237,282.85H43.91a5.71,5.71,0,0,1-5.7-5.71V5.71A5.71,5.71,0,0,1,43.91,0H237a5.71,5.71,0,0,1,5.71,5.71V277.14A5.71,5.71,0,0,1,237,282.85ZM43.91.25a5.46,5.46,0,0,0-5.45,5.46V277.14a5.46,5.46,0,0,0,5.45,5.46H237a5.47,5.47,0,0,0,5.46-5.46V5.71A5.47,5.47,0,0,0,237,.25Z"/><path class="cls-2" d="M453.31,282.85H260.21a5.72,5.72,0,0,1-5.71-5.71V5.71A5.72,5.72,0,0,1,260.21,0h193.1A5.71,5.71,0,0,1,459,5.71V277.14A5.71,5.71,0,0,1,453.31,282.85ZM260.21.25a5.47,5.47,0,0,0-5.46,5.46V277.14a5.47,5.47,0,0,0,5.46,5.46h193.1a5.47,5.47,0,0,0,5.46-5.46V5.71A5.47,5.47,0,0,0,453.31.25Z"/><rect class="cls-2" x="51.28" y="336.97" width="26" height="0.25"/><rect class="cls-2" x="145.15" y="334.26" width="45.03" height="0.25"/><rect class="cls-2" x="78.28" y="346.26" width="60.79" height="0.25"/><rect class="cls-2" x="429.49" y="344.58" width="19.23" height="0.25"/><rect class="cls-2" x="365.29" y="344.58" width="55.29" height="0.25"/><rect class="cls-2" x="257.05" y="340.35" width="74.47" height="0.25"/><rect class="cls-3" x="222.82" y="219.56" width="42.05" height="107.89"/><rect class="cls-4" x="72.35" y="219.56" width="150.46" height="107.89" transform="translate(295.17 547) rotate(180)"/><rect class="cls-5" x="81.57" y="294.97" width="25.11" height="21.97" transform="translate(188.26 611.9) rotate(180)"/><rect class="cls-2" x="81.57" y="264.94" width="25.11" height="21.97" transform="translate(188.26 551.84) rotate(180)"/><rect class="cls-6" x="71.91" y="233.48" width="192.95" height="4.33"/><rect class="cls-3" x="222.82" y="217.46" width="44.37" height="17.47"/><rect class="cls-4" x="70.03" y="217.46" width="152.79" height="17.47" transform="translate(292.84 452.4) rotate(180)"/><rect class="cls-3" x="216.25" y="184.48" width="32.68" height="33.25"/><rect class="cls-4" x="102.46" y="184.48" width="113.79" height="33.25" transform="translate(318.7 402.22) rotate(180)"/><rect class="cls-6" x="102.12" y="189.5" width="146.81" height="2.69"/><rect class="cls-3" x="216.25" y="182.86" width="34.48" height="7.77"/><rect class="cls-4" x="100.65" y="182.86" width="115.59" height="7.77" transform="translate(316.9 373.49) rotate(180)"/><rect class="cls-7" x="287.41" y="165.57" width="31.99" height="161.88" transform="translate(606.81 493.02) rotate(180)"/><polygon class="cls-3" points="294.26 327.45 287.41 327.45 287.41 315.97 301.44 315.97 294.26 327.45"/><rect class="cls-7" x="394.12" y="165.57" width="31.99" height="161.88" transform="translate(820.24 493.02) rotate(180)"/><rect class="cls-3" x="287.41" y="165.57" width="112.69" height="159.56" transform="translate(687.51 490.7) rotate(180)"/><rect class="cls-7" x="292.72" y="172.64" width="102.06" height="43.76" transform="translate(687.51 389.04) rotate(180)"/><path class="cls-8" d="M350.46,193.59a6.71,6.71,0,1,1-6.71-6.71A6.71,6.71,0,0,1,350.46,193.59Z"/><polygon class="cls-3" points="393.25 327.45 400.1 327.45 400.1 315.97 386.07 315.97 393.25 327.45"/><rect class="cls-7" x="292.72" y="223.47" width="102.06" height="94.59"/><circle class="cls-8" cx="380.69" cy="237.57" r="6.71"/><rect class="cls-7" x="185.24" y="-82.46" width="130.98" height="329.04" transform="translate(332.79 -168.67) rotate(90)"/><rect class="cls-3" x="183.78" y="-82.46" width="130.98" height="329.04" transform="translate(331.33 -167.21) rotate(90)"/><rect class="cls-5" x="93.13" y="24.95" width="312.3" height="114.23"/><polygon class="cls-7" points="129.54 72.55 118.56 91.58 140.53 91.58 129.54 72.55"/><rect class="cls-7" x="168.61" y="73.09" width="17.94" height="17.94"/><polygon class="cls-7" points="225.62 70.58 213.55 79.35 218.16 93.54 233.07 93.54 237.68 79.35 225.62 70.58"/><polygon class="cls-7" points="280 71.07 267.31 71.07 260.96 82.06 267.31 93.05 280 93.05 286.34 82.06 280 71.07"/><polygon class="cls-7" points="321.69 70 311.77 74.78 309.32 85.51 316.18 94.12 327.19 94.12 334.06 85.51 331.61 74.78 321.69 70"/><polygon class="cls-7" points="374.58 70.34 364.87 70.34 358 77.2 358 86.92 364.87 93.78 374.58 93.78 381.44 86.92 381.44 77.2 374.58 70.34"/></g><g id="Shadow"><ellipse id="_Path_" data-name="&lt;Path&gt;" class="cls-4" cx="250" cy="361.29" rx="193.89" ry="11.32"/></g><g id="To_Do_List" data-name="To Do List"><path class="cls-9" d="M239.41,74.55H404.06a6,6,0,0,1,6,6.39L396.63,297.27a6.92,6.92,0,0,1-6.78,6.39H225.19a6,6,0,0,1-6-6.39L232.62,80.94A6.93,6.93,0,0,1,239.41,74.55Z"/><path class="cls-10" d="M239.41,74.55H404.06a6,6,0,0,1,6,6.39L396.63,297.27a6.92,6.92,0,0,1-6.78,6.39H225.19a6,6,0,0,1-6-6.39L232.62,80.94A6.93,6.93,0,0,1,239.41,74.55Z"/><path class="cls-9" d="M235.63,74.55H400.28a6,6,0,0,1,6,6.39L392.85,297.27a6.92,6.92,0,0,1-6.79,6.39H221.41a6,6,0,0,1-6-6.39L228.84,80.94A6.92,6.92,0,0,1,235.63,74.55Z"/><polygon class="cls-10" points="224.34 291.98 384.61 293.9 397.61 84.38 237.22 84.38 224.34 291.98"/><path class="cls-5" d="M219.66,289.86H382c8.94-81.91,11.69-126.13,12.91-208H232.57C231.35,163.73,228.61,208,219.66,289.86Z"/><path class="cls-11" d="M375.49,138.8H347.54a2.07,2.07,0,0,1-2.06-2.19l1.73-28a2.07,2.07,0,0,1,2.06-1.93h28a2,2,0,0,1,1.5.65,2.08,2.08,0,0,1,.56,1.54l-1.74,27.94A2.05,2.05,0,0,1,375.49,138.8Zm-25.75-4.13h23.81L375,110.86H351.21Z"/><path class="cls-11" d="M372.84,181.37H344.9a2.07,2.07,0,0,1-2.06-2.19l1.73-28a2.07,2.07,0,0,1,2.06-1.94h27.95a2.07,2.07,0,0,1,1.5.65,2.11,2.11,0,0,1,.56,1.55l-1.74,27.94A2.06,2.06,0,0,1,372.84,181.37Zm-25.75-4.13H370.9l1.48-23.82H348.57Z"/><path class="cls-11" d="M370.2,223.93H342.26a2.06,2.06,0,0,1-1.51-.65,2,2,0,0,1-.55-1.54l1.73-27.94a2.07,2.07,0,0,1,2.06-1.94h27.95a2.07,2.07,0,0,1,2.06,2.19L372.26,222A2.07,2.07,0,0,1,370.2,223.93Zm-25.75-4.12h23.81L369.74,196H345.93Z"/><path class="cls-11" d="M367.56,266.5H339.62a2.1,2.1,0,0,1-1.51-.65,2.06,2.06,0,0,1-.55-1.54l1.73-27.95a2.06,2.06,0,0,1,2.06-1.93H369.3a2,2,0,0,1,1.5.65,2.08,2.08,0,0,1,.56,1.54l-1.74,27.94A2.07,2.07,0,0,1,367.56,266.5Zm-25.75-4.13h23.81l1.48-23.82H343.29Z"/><path class="cls-11" d="M259.88,119.11h63.29a3.78,3.78,0,0,0,3.71-3.49h0a3.26,3.26,0,0,0-3.28-3.5H260.32a3.77,3.77,0,0,0-3.71,3.5h0A3.25,3.25,0,0,0,259.88,119.11Z"/><path class="cls-11" d="M271,133.41h51.25a3.79,3.79,0,0,0,3.71-3.5h0a3.25,3.25,0,0,0-3.27-3.49H271.46a3.78,3.78,0,0,0-3.71,3.49h0A3.26,3.26,0,0,0,271,133.41Z"/><path class="cls-11" d="M256.79,169h63.29a3.25,3.25,0,0,1,3.27,3.49h0a3.78,3.78,0,0,1-3.71,3.49H256.35a3.25,3.25,0,0,1-3.27-3.49h0A3.78,3.78,0,0,1,256.79,169Z"/><path class="cls-11" d="M269.71,154.69H321a3.25,3.25,0,0,1,3.28,3.49h0a3.79,3.79,0,0,1-3.71,3.5H269.28a3.26,3.26,0,0,1-3.28-3.5h0A3.78,3.78,0,0,1,269.71,154.69Z"/><path class="cls-11" d="M254.6,204.24h63.29a3.78,3.78,0,0,0,3.71-3.49h0a3.26,3.26,0,0,0-3.28-3.5H255a3.79,3.79,0,0,0-3.71,3.5h0A3.25,3.25,0,0,0,254.6,204.24Z"/><path class="cls-11" d="M291.54,218.54H317a3.78,3.78,0,0,0,3.71-3.5h0a3.25,3.25,0,0,0-3.28-3.49H292a3.78,3.78,0,0,0-3.71,3.49h0A3.25,3.25,0,0,0,291.54,218.54Z"/><path class="cls-11" d="M265.75,218.54h13.43a3.78,3.78,0,0,0,3.71-3.5h0a3.25,3.25,0,0,0-3.28-3.49H266.18a3.78,3.78,0,0,0-3.71,3.49h0A3.26,3.26,0,0,0,265.75,218.54Z"/><path class="cls-11" d="M252,246.81h63.29a3.79,3.79,0,0,0,3.71-3.5h0a3.25,3.25,0,0,0-3.28-3.49H252.39a3.78,3.78,0,0,0-3.71,3.49h0A3.26,3.26,0,0,0,252,246.81Z"/><path class="cls-11" d="M263.11,261.1h51.25a3.78,3.78,0,0,0,3.71-3.49h0a3.25,3.25,0,0,0-3.28-3.49H263.54a3.78,3.78,0,0,0-3.71,3.49h0A3.25,3.25,0,0,0,263.11,261.1Z"/><path class="cls-9" d="M360.11,131.15a2.08,2.08,0,0,1-1.16-.36l-10.77-7.35a2.07,2.07,0,1,1,2.33-3.41l9.2,6.28c3.36-4,12.94-15,20.91-18.59a2.06,2.06,0,1,1,1.68,3.77c-8.7,3.88-20.45,18.72-20.56,18.87A2.06,2.06,0,0,1,360.11,131.15Z"/><path class="cls-9" d="M355.1,172.89a2.05,2.05,0,0,1-1.44-.58l-9.37-9a2.07,2.07,0,1,1,2.87-3l8,7.69c3.95-3.53,15-12.94,23.36-15.22a2.06,2.06,0,1,1,1.09,4c-9.12,2.5-22.93,15.44-23.07,15.57A2.07,2.07,0,0,1,355.1,172.89Z"/><path class="cls-10" d="M337.57,86.78l3,0a6.13,6.13,0,0,0,6.18-6.06l0-5.58a.61.61,0,0,0-.62-.62h-8.48a.7.7,0,0,0-.69.69L337,86.16A.61.61,0,0,0,337.57,86.78Z"/><path class="cls-9" d="M291.55,64.44h51.06a4.92,4.92,0,0,1,5,5.75l-1.53,11.38a6.83,6.83,0,0,1-6.54,5.76H288.46a4.93,4.93,0,0,1-5-5.76L285,70.19A6.83,6.83,0,0,1,291.55,64.44Z"/><path class="cls-12" d="M291.55,64.44h51.06a4.92,4.92,0,0,1,5,5.75l-1.53,11.38a6.83,6.83,0,0,1-6.54,5.76H288.46a4.93,4.93,0,0,1-5-5.76L285,70.19A6.83,6.83,0,0,1,291.55,64.44Z"/><path class="cls-13" d="M341.29,69.94h-23a1.55,1.55,0,1,1,0-3.1h23a1.55,1.55,0,0,1,0,3.1Z"/><path class="cls-13" d="M310.64,69.94h-2.42a1.55,1.55,0,0,1,0-3.1h2.42a1.55,1.55,0,1,1,0,3.1Z"/></g><g id="Character"><polygon class="cls-9" points="169.46 291.7 179.33 293.58 202.66 183.86 188.17 181.1 169.46 291.7"/><polygon class="cls-14" points="204.15 107.68 215.97 103.8 216.79 99.51 205.78 99.17 204.15 107.68"/><polygon class="cls-9" points="203.85 105.19 217.31 100.81 203.48 179.57 188.99 176.81 203.85 105.19"/><rect class="cls-14" x="189.05" y="178.15" width="13.55" height="4.37" transform="matrix(-0.98, -0.19, 0.19, -0.98, 354.38, 394.18)"/><path class="cls-9" d="M171.24,304.69c-.13.65.14,1.25.6,1.33s.94-.36,1.06-1-.15-1.25-.61-1.34S171.36,304,171.24,304.69Z"/><polygon class="cls-14" points="170.56 304.77 173.5 305.33 179.33 293.58 169.46 291.7 170.56 304.77"/><path class="cls-14" d="M188.34,156.86a1.23,1.23,0,0,1-.53-.11,1.25,1.25,0,0,1-.6-1.66c6.2-13.28,11.23-41,11.91-47.64a5.42,5.42,0,0,1,3.24-4.42l3.27-1.41a1.25,1.25,0,1,1,1,2.29l-3.27,1.41a2.93,2.93,0,0,0-1.75,2.38c-.71,6.94-5.7,34.69-12.12,48.45A1.24,1.24,0,0,1,188.34,156.86Z"/><path class="cls-15" d="M142.27,103.84c-2.49,4.27-5,8.79-7.37,13.24-1.17,2.23-2.31,4.48-3.4,6.73s-2.11,4.52-3,6.78l-.17.41s0,0,0,0a.53.53,0,0,0-.07.21,5,5,0,0,0-.07,1,15.14,15.14,0,0,0,.42,2.94,49.89,49.89,0,0,0,2.2,6.75c.89,2.31,1.91,4.62,3,6.93s2.2,4.65,3.29,6.91L132.29,159a86.84,86.84,0,0,1-9.41-13.27,49.12,49.12,0,0,1-3.65-7.76,26,26,0,0,1-1.2-4.72,15.28,15.28,0,0,1-.12-2.93,12.65,12.65,0,0,1,.24-1.72c.06-.3.16-.63.25-.93l.16-.52a111.53,111.53,0,0,1,6-15.21,143.28,143.28,0,0,1,7.79-14.18Z"/><path class="cls-15" d="M136.35,154.3l4.47,3.48L134,163.41s-3.11-3-2.63-6.69Z"/><polygon class="cls-15" points="142.64 162.86 138.09 168.71 133.99 163.41 140.82 157.78 142.64 162.86"/><path class="cls-14" d="M168,62.16c.13.6.55,1,.94,1s.62-.64.5-1.25-.55-1-.94-1S167.92,61.55,168,62.16Z"/><path class="cls-16" d="M168.53,63.2a22.22,22.22,0,0,0,3.95,4.59,3.57,3.57,0,0,1-2.79,1.13Z"/><path class="cls-14" d="M165.14,59.24a.36.36,0,0,1-.24-.09.37.37,0,0,1,0-.52,3.61,3.61,0,0,1,3.08-1.2.38.38,0,0,1,.3.42.36.36,0,0,1-.42.3h0a2.86,2.86,0,0,0-2.43,1A.39.39,0,0,1,165.14,59.24Z"/><path class="cls-15" d="M150.79,70.67c1.1,5.61,2.2,15.87-1.72,19.61,0,0,1.53,5.69,11.94,5.69,11.45,0,5.48-5.69,5.48-5.69-6.25-1.49-6.09-6.13-5-10.48Z"/><path class="cls-14" d="M146.85,90.7c-.83-2,1-8,2.85-8.56,2.09-.65,10-.28,14,1.36,2.81,2.84,3.62,8.74,3.62,8.74Z"/><path class="cls-9" d="M114.15,352.57a2.46,2.46,0,0,0,1.9-.1.74.74,0,0,0,.18-.85.82.82,0,0,0-.47-.53c-1-.49-3.41.48-3.51.52a.16.16,0,0,0-.11.16.19.19,0,0,0,.1.17A10.3,10.3,0,0,0,114.15,352.57Zm1.24-1.22a.81.81,0,0,1,.22.07.49.49,0,0,1,.27.31c.1.32,0,.43-.06.46-.41.35-1.94,0-3-.4A5.88,5.88,0,0,1,115.39,351.35Z"/><path class="cls-9" d="M112.28,352h.09c.87-.25,2.72-1.57,2.74-2.44a.59.59,0,0,0-.46-.59,1,1,0,0,0-.81.07c-1,.52-1.67,2.64-1.69,2.73a.17.17,0,0,0,0,.18A.14.14,0,0,0,112.28,352Zm2.17-2.71.08,0c.22.08.22.18.22.23,0,.52-1.24,1.55-2.13,2a4.31,4.31,0,0,1,1.39-2.16A.69.69,0,0,1,114.45,349.24Z"/><path class="cls-9" d="M169.44,353.86c1,0,1.94-.14,2.25-.58a.67.67,0,0,0,0-.79.9.9,0,0,0-.58-.43c-1.27-.34-3.95,1.18-4.06,1.25a.17.17,0,0,0-.09.18.17.17,0,0,0,.14.15A13.19,13.19,0,0,0,169.44,353.86Zm1.22-1.49a1.29,1.29,0,0,1,.35,0,.53.53,0,0,1,.35.26c.13.22.09.33,0,.4-.36.49-2.29.5-3.72.3A8.27,8.27,0,0,1,170.66,352.37Z"/><path class="cls-9" d="M167.13,353.65l.07,0c.93-.42,2.76-2.07,2.62-2.94,0-.2-.18-.45-.68-.51a1.33,1.33,0,0,0-1,.32c-1,.8-1.18,2.86-1.19,2.95a.17.17,0,0,0,.07.16A.21.21,0,0,0,167.13,353.65Zm1.87-3.11h.11c.32,0,.34.16.35.2.09.52-1.16,1.82-2.1,2.39a4.25,4.25,0,0,1,1-2.36A1,1,0,0,1,169,350.54Z"/><polygon class="cls-15" points="158.71 353.46 166.37 353.46 167.13 335.73 159.47 335.73 158.71 353.46"/><polygon class="cls-15" points="103.43 349.92 111.12 351.54 116.55 335.02 108.85 333.39 103.43 349.92"/><path class="cls-14" d="M112,350.79,103.54,349a.67.67,0,0,0-.75.37l-2.92,6.33a1.13,1.13,0,0,0,.81,1.57c2.95.59,4.41.72,8.11,1.53,2.27.49,7.41,1.74,10.55,2.42s4.23-2.34,3-2.9c-5.49-2.51-7.79-4.72-9.27-6.78A1.84,1.84,0,0,0,112,350.79Z"/><path class="cls-14" d="M166.32,352.58H158a.66.66,0,0,0-.65.52l-1.51,6.81a1.11,1.11,0,0,0,1.1,1.36c3,0,7.38-.23,11.17-.23,4.43,0,2.71.25,7.91.25,3.15,0,4-3.18,2.7-3.47-6-1.31-5.33-1.45-10.51-4.65A3.58,3.58,0,0,0,166.32,352.58Z"/><path class="cls-14" d="M135.35,92c-7.18,1.65-13.09,20-13.09,20l14.41,11a31.51,31.51,0,0,0,7.65-14.16C146.79,99.21,142.69,90.33,135.35,92Z"/><path class="cls-17" d="M141.51,105.49c-3.9,3.86-5.17,10.89-5.48,17l.64.49a31.48,31.48,0,0,0,7.65-14.16c.15-.57.27-1.15.38-1.71Z"/><path class="cls-14" d="M178.27,92.41s8.15,9.21.45,66.21h-41c-.28-6.29,3.67-37-2.4-66.61a106.75,106.75,0,0,1,13.72-1.73,151,151,0,0,1,17.42,0A77.67,77.67,0,0,1,178.27,92.41Z"/><polygon class="cls-17" points="167.13 335.73 166.74 344.87 159.07 344.87 159.46 335.73 167.13 335.73"/><polygon class="cls-17" points="108.85 333.4 116.55 335.02 113.74 343.54 106.05 341.92 108.85 333.4"/><path class="cls-15" d="M147.59,65c2,7.34,2.74,11.74,7.27,14.79,6.82,4.59,15.31-.68,15.57-8.46.24-7-3-17.84-10.9-19.32A10.37,10.37,0,0,0,147.59,65Z"/><path class="cls-15" d="M154.91,78.92h-.1a7.45,7.45,0,0,1-6.07-3.09c-2.3-3.2-5.53-8.77-5.9-15.2,2.92-3.08,13.89-5.11,18.78-4,4.07.93,3.48,12.52-.37,18.78A7.45,7.45,0,0,1,154.91,78.92Z"/><path class="cls-18" d="M154.91,78.92h-.1a7.45,7.45,0,0,1-6.07-3.09c-2.3-3.2-5.53-8.77-5.9-15.2,2.92-3.08,13.89-5.11,18.78-4,4.07.93,3.48,12.52-.37,18.78A7.45,7.45,0,0,1,154.91,78.92Z"/><path class="cls-14" d="M147.29,63.24a6.63,6.63,0,0,1-6-4.28c-.87-2.59.05-8.08,5.28-8.25s5.77-3.13,4.16-3.75c3.42.25,2.34,2.64,2.34,2.64.91.06,1.77-2.44,7-2.25s7.78-.91,7.11-2.08c2.47.5,1.78,3.5-.31,4.31,0,0,4.95,3.75,6.12,1.69.83,1.5-.81,3.29-7.06,2.48,2.49,3.48-3.41,2.7-5.92,4.29S150.74,63.49,147.29,63.24Z"/><path class="cls-15" d="M160.08,64.63a8.59,8.59,0,0,0,3.09,4.57c2,1.49,3.48,0,3.34-2.23-.12-2-1.32-5.25-3.51-5.85S159.51,62.43,160.08,64.63Z"/><path class="cls-14" d="M164.19,158.62s-8.7,58.54-13.47,80.47c-5.22,24-33.25,103.47-33.25,103.47l-13.71-3s19.6-64.75,24-98.32c3.37-25.8,10-82.65,10-82.65Z"/><path class="cls-9" d="M120.76,338s-2.56,5-2.56,5l-15.43-3.34,1.3-4.64Z"/><path class="cls-19" d="M158.69,179.48c-10.05,2-9,39.45-7.77,58.73,2.89-13.63,7.14-39.85,10-58.46A3.4,3.4,0,0,0,158.69,179.48Z"/><path class="cls-14" d="M178.72,158.62s1.06,57.27.22,80.63c-.86,24.3-9.35,103.85-9.35,103.85h-13s-.47-78.13-1.05-102c-.63-26-3.77-82.48-3.77-82.48Z"/><path class="cls-9" d="M172.09,337.93c.06,0-.74,5.39-.74,5.39H155.57l-.43-4.81Z"/><path class="cls-9" d="M178.46,91.39c2,.84,3.93,2.33,4.51,7.28.56,4.75-.52,46.38-1.82,59.67a1.93,1.93,0,0,1-1.69,1.83c-8.19.35-33.56-3.08-42.12-1.57-1,.17-1.87-.92-1.81-1.92.67-13-.3-33.85-1.88-47.13-1-8.66-1-17.73,6.23-19.27C145.26,89.14,170.64,88.14,178.46,91.39Z"/><path class="cls-15" d="M181.63,102.9c.46,2.2,1,4.59,1.5,6.87s1.12,4.59,1.76,6.84,1.3,4.46,2.06,6.57a36.62,36.62,0,0,0,2.56,5.79,11.49,11.49,0,0,0,1.33,2c.19.21.34.34.38.39s0,.09.19.15a5.53,5.53,0,0,0,2,.26,24,24,0,0,0,3-.32,88.11,88.11,0,0,0,13.26-3.9l2.91,5a50.68,50.68,0,0,1-13.72,7.84,25.94,25.94,0,0,1-4.26,1.15,15.57,15.57,0,0,1-5.32.08,10.9,10.9,0,0,1-3.25-1.11,12.7,12.7,0,0,1-2.54-1.84,21.11,21.11,0,0,1-3.21-3.83,60.48,60.48,0,0,1-6.51-14.87c-.75-2.47-1.44-4.93-2-7.42s-1.12-4.92-1.55-7.56Z"/><path class="cls-14" d="M164.78,99.9c-6.22,12.51,8.56,26.65,8.56,26.65l16.48-8.6a90.26,90.26,0,0,0-5.63-19.33C179.39,88,168.36,92.7,164.78,99.9Z"/><path class="cls-15" d="M208.14,128.24l5.59-3.67,2.32,8.36s-2.5,2.93-7.08-.26Z"/><path class="cls-15" d="M218.6,128l-.18,1.75a3.38,3.38,0,0,1-1.14,2.19l-1.23,1-2.32-8.36.71-.18A3.33,3.33,0,0,1,218.6,128Z"/></g></g></g></svg>