<svg id="Capa_1" data-name="Capa 1" xmlns="http://www.w3.org/2000/svg" viewBox="0 0 469.89 475.6"><defs><style>.cls-1{fill:#b7195f;}.cls-2{fill:#2a3281;}.cls-3{fill:#fbb908;}.cls-4{fill:#39aa39;}.cls-5{fill:#5f2a83;}.cls-6{fill:#e5007d;}</style></defs><polygon class="cls-1" points="186.1 416.61 273.56 475.6 313.35 416.61 186.1 416.61"/><polygon class="cls-1" points="430.1 157.67 415.31 213.67 436.57 233.91 469.89 184.51 430.1 157.67"/><polygon class="cls-2" points="224.08 72.57 109.45 54.33 89.01 131.67 224.08 72.57"/><polygon class="cls-3" points="44.22 236.62 238.85 61.04 425.69 238.98 238.85 414.56 44.22 236.62"/><polygon class="cls-1" points="239.06 45.8 252.9 58.98 283.8 58.98 196.34 0 156.56 58.98 224.44 58.98 239.06 45.8"/><polygon class="cls-4" points="169.28 108.74 40.16 165.23 56.82 210.2 169.28 108.74"/><polygon class="cls-5" points="75.56 149.75 96.59 70.16 67.31 70.16 67.31 153.35 75.56 149.75"/><polygon class="cls-4" points="382.23 182.17 329.12 38.81 262.38 68.01 382.23 182.17"/><polygon class="cls-5" points="340.73 70.15 345.65 83.41 402.6 92.46 402.6 70.15 340.73 70.15"/><polygon class="cls-4" points="310.57 362.5 429.74 310.36 413.28 265.96 310.57 362.5"/><polygon class="cls-5" points="394.33 325.85 373.3 405.44 402.6 405.44 402.6 322.24 394.33 325.85"/><polygon class="cls-4" points="86.58 290.48 140.78 436.78 212.35 405.48 86.58 290.48"/><polygon class="cls-5" points="124.25 392.19 67.31 383.13 67.31 405.43 129.17 405.43 124.25 392.19"/><polygon class="cls-3" points="44.22 236.62 238.85 61.04 425.69 238.98 238.85 414.56 44.22 236.62"/><polygon class="cls-2" points="57.95 249.18 26.52 368.16 108.25 381.16 60.07 251.1 57.95 249.18"/><polygon class="cls-1" points="54.73 261.37 33.28 241.75 0 291.08 39.8 317.92 54.73 261.37"/><polygon class="cls-2" points="412.05 226 443.38 107.44 361.64 94.44 409.48 223.55 412.05 226"/><polygon class="cls-2" points="250.35 403.75 360.46 421.25 380.89 343.93 255.75 398.69 250.35 403.75"/><path class="cls-6" d="M384.31,196.65,320.9,339l136.7,59.59L521,256.25ZM421,340.56a42.92,42.92,0,1,1,42.92-42.92A42.92,42.92,0,0,1,421,340.56" transform="translate(-186 -59.84)"/></svg>