<svg id="Capa_1" data-name="Capa 1" xmlns="http://www.w3.org/2000/svg" viewBox="0 0 755.31 176.08"><defs><style>.cls-1{fill:#575756;}.cls-2{fill:#3c3c3b;}.cls-3{fill:#b7195f;}.cls-4{fill:#2a3281;}.cls-5{fill:#fbb908;}.cls-6{fill:#39aa39;}.cls-7{fill:#5f2a83;}.cls-8{fill:#e5007d;}</style></defs><path class="cls-1" d="M216,368.09a.92.92,0,0,1-.89-.56,2.93,2.93,0,0,0-2.49-1.41,2.86,2.86,0,0,0-3,2.77c0,1.45,1,2.11,3,2.74,3.12,1,5.45,2.21,5.45,5.15s-2.42,4.86-5.45,4.86a5.36,5.36,0,0,1-5.24-3.66c-.14-.52.14-.83.69-.83h.28a.83.83,0,0,1,.84.64,3.67,3.67,0,0,0,3.43,2.13c2,0,3.66-1.19,3.66-3.14,0-1.55-1-2.4-3.66-3.22-3.12-1-4.81-2.13-4.81-4.67a4.47,4.47,0,0,1,4.81-4.48,4.61,4.61,0,0,1,4.39,2.84c.19.51-.09.84-.63.84Z" transform="translate(-38.89 -210.04)"/><path class="cls-1" d="M220.19,367.88a1.12,1.12,0,0,1,1.13-1.08,1.11,1.11,0,0,1,0,2.21,1.12,1.12,0,0,1-1.13-1.13m1.08,13.55a.67.67,0,0,1-.75-.75v-8.83a.67.67,0,0,1,.75-.75h.14a.67.67,0,0,1,.75.75v8.83a.67.67,0,0,1-.75.75Z" transform="translate(-38.89 -210.04)"/><path class="cls-1" d="M230.62,373.09a2.42,2.42,0,0,0-1.88-.68c-1.25,0-2.12.59-2.12,1.36s.68,1.23,2.37,1.55c2.66.54,3.71,1.46,3.71,3.17s-1.38,3.1-4,3.1c-2,0-3.39-.92-3.83-2.3-.17-.49.16-.8.68-.8s.61.21.84.56a2.73,2.73,0,0,0,2.31,1.06c1.52,0,2.53-.68,2.53-1.62s-.65-1.31-2.53-1.69c-2.47-.49-3.57-1.39-3.57-3s1.22-2.84,3.57-2.84a3.43,3.43,0,0,1,3.35,1.88c.21.49-.09.82-.61.82s-.61-.21-.86-.54" transform="translate(-38.89 -210.04)"/><path class="cls-1" d="M239,372.53h-1.57v8.15a.67.67,0,0,1-.75.75h-.07a.67.67,0,0,1-.75-.75v-8.15h-.8a.67.67,0,0,1-.75-.75c0-.45.25-.68.75-.68h.8v-3.32a.67.67,0,0,1,.75-.75h.07a.67.67,0,0,1,.75.75v3.32H239c.5,0,.75.23.75.7a.66.66,0,0,1-.75.73" transform="translate(-38.89 -210.04)"/><path class="cls-1" d="M251.79,376.64c0,.26-.26.37-.75.37H242.8a3.79,3.79,0,0,0,3.64,3.13,3.6,3.6,0,0,0,2.49-1,1.19,1.19,0,0,1,.93-.43h.31c.61,0,.89.43.52.92a5.38,5.38,0,0,1-4.25,2.07,5.46,5.46,0,0,1-5.36-5.41,5.36,5.36,0,0,1,10.71,0Zm-9-1.13h7.28a3.7,3.7,0,0,0-7.28,0" transform="translate(-38.89 -210.04)"/><path class="cls-1" d="M269.65,375.53v5.14a.66.66,0,0,1-.74.75h-.07a.67.67,0,0,1-.76-.75v-5.14c0-2-.77-3-2.3-3-1.9,0-3.09,1.06-3.09,3.57v4.62a.67.67,0,0,1-.76.75h-.07a.67.67,0,0,1-.75-.75v-5.14c0-2-.77-3-2.3-3-1.9,0-3.1,1.06-3.1,3.57v4.62a.67.67,0,0,1-.75.75h-.07a.67.67,0,0,1-.75-.75v-8.82a.67.67,0,0,1,.75-.76H255a.67.67,0,0,1,.75.76v.49a3.93,3.93,0,0,1,3.1-1.41c1.81,0,2.93.59,3.47,2a3.87,3.87,0,0,1,3.5-2c2.68,0,3.87,1.31,3.87,4.6" transform="translate(-38.89 -210.04)"/><path class="cls-1" d="M272,376.28a5.38,5.38,0,0,1,5.36-5.35,5,5,0,0,1,3.89,1.86v-.94a.67.67,0,0,1,.76-.75h.07a.67.67,0,0,1,.75.75v8.87a.67.67,0,0,1-.75.75H282a.67.67,0,0,1-.76-.75v-.94a5,5,0,0,1-3.89,1.9,5.45,5.45,0,0,1-5.36-5.4m9.16,0a3.89,3.89,0,0,0-3.85-3.8,3.7,3.7,0,0,0-3.66,3.8,3.77,3.77,0,0,0,3.66,3.86,4,4,0,0,0,3.85-3.86" transform="translate(-38.89 -210.04)"/><path class="cls-1" d="M298.88,364.66a5.22,5.22,0,1,1,0,10.43H295.1v5.58a.67.67,0,0,1-.75.76h-.21a.67.67,0,0,1-.75-.76V365.41a.67.67,0,0,1,.75-.75Zm0,8.78a3.57,3.57,0,1,0,0-7.14H295.1v7.14Z" transform="translate(-38.89 -210.04)"/><path class="cls-1" d="M305.76,376.28a5.38,5.38,0,0,1,5.36-5.35,5,5,0,0,1,3.89,1.86v-.94a.67.67,0,0,1,.76-.75h.06a.67.67,0,0,1,.75.75v8.87a.67.67,0,0,1-.75.75h-.06a.67.67,0,0,1-.76-.75v-.94a5,5,0,0,1-3.89,1.9,5.45,5.45,0,0,1-5.36-5.4m9.16,0a3.89,3.89,0,0,0-3.85-3.8,3.7,3.7,0,0,0-3.66,3.8,3.77,3.77,0,0,0,3.66,3.86,4,4,0,0,0,3.85-3.86" transform="translate(-38.89 -210.04)"/><path class="cls-1" d="M321.45,372.5a4.55,4.55,0,0,1,2.72-1.5c.49-.09.77.21.77.71v0c0,.5-.25.71-.72.8a3.1,3.1,0,0,0-2.77,3.17v4.95a.67.67,0,0,1-.75.75h-.08a.67.67,0,0,1-.75-.75v-8.82a.67.67,0,0,1,.75-.76h.08a.67.67,0,0,1,.75.76Z" transform="translate(-38.89 -210.04)"/><path class="cls-1" d="M330.81,372.53h-1.57v8.15a.67.67,0,0,1-.75.75h-.07a.67.67,0,0,1-.75-.75v-8.15h-.8a.67.67,0,0,1-.75-.75c0-.45.26-.68.75-.68h.8v-3.32a.67.67,0,0,1,.75-.75h.07a.67.67,0,0,1,.75.75v3.32h1.57c.49,0,.75.23.75.7a.67.67,0,0,1-.75.73" transform="translate(-38.89 -210.04)"/><path class="cls-1" d="M333.44,367.88a1.12,1.12,0,1,1,1.13,1.13,1.13,1.13,0,0,1-1.13-1.13m1.08,13.55a.67.67,0,0,1-.75-.75v-8.83a.67.67,0,0,1,.75-.75h.14a.66.66,0,0,1,.75.75v8.83a.67.67,0,0,1-.75.75Z" transform="translate(-38.89 -210.04)"/><path class="cls-1" d="M347.1,374.45a1.08,1.08,0,0,1-.91-.49,3.63,3.63,0,0,0-2.94-1.48,3.73,3.73,0,0,0-3.7,3.8,3.8,3.8,0,0,0,3.7,3.85,3.61,3.61,0,0,0,2.94-1.52,1.09,1.09,0,0,1,.91-.5h.24c.57,0,.84.38.57.9a5.4,5.4,0,1,1-.05-5.45c.3.52,0,.89-.57.89Z" transform="translate(-38.89 -210.04)"/><path class="cls-1" d="M350.53,367.88a1.12,1.12,0,1,1,1.13,1.13,1.12,1.12,0,0,1-1.13-1.13m1.08,13.55a.67.67,0,0,1-.75-.75v-8.83a.67.67,0,0,1,.75-.75h.14a.66.66,0,0,1,.75.75v8.83a.67.67,0,0,1-.75.75Z" transform="translate(-38.89 -210.04)"/><path class="cls-1" d="M366.4,376.28a5.45,5.45,0,0,1-5.35,5.4,5,5,0,0,1-3.9-1.9v5.59a.67.67,0,0,1-.75.75h-.07a.67.67,0,0,1-.75-.75V371.85a.67.67,0,0,1,.75-.75h.07a.67.67,0,0,1,.75.75v.94a5.06,5.06,0,0,1,3.9-1.86,5.38,5.38,0,0,1,5.35,5.35m-1.64,0a3.7,3.7,0,0,0-3.66-3.8,3.9,3.9,0,0,0-3.86,3.8,4,4,0,0,0,3.86,3.86,3.77,3.77,0,0,0,3.66-3.86" transform="translate(-38.89 -210.04)"/><path class="cls-1" d="M368.16,376.28a5.38,5.38,0,0,1,5.36-5.35,5,5,0,0,1,3.89,1.86v-.94a.67.67,0,0,1,.76-.75h.07a.67.67,0,0,1,.75.75v8.87a.67.67,0,0,1-.75.75h-.07a.67.67,0,0,1-.76-.75v-.94a5,5,0,0,1-3.89,1.9,5.45,5.45,0,0,1-5.36-5.4m9.16,0a3.89,3.89,0,0,0-3.85-3.8,3.7,3.7,0,0,0-3.66,3.8,3.77,3.77,0,0,0,3.66,3.86,4,4,0,0,0,3.85-3.86" transform="translate(-38.89 -210.04)"/><path class="cls-1" d="M386,372.53h-1.57v8.15a.67.67,0,0,1-.75.75h-.07a.67.67,0,0,1-.75-.75v-8.15h-.8a.67.67,0,0,1-.76-.75c0-.45.26-.68.76-.68h.8v-3.32a.67.67,0,0,1,.75-.75h.07a.67.67,0,0,1,.75.75v3.32H386c.49,0,.75.23.75.7a.67.67,0,0,1-.75.73" transform="translate(-38.89 -210.04)"/><path class="cls-1" d="M388.66,367.88a1.12,1.12,0,0,1,1.12-1.08,1.11,1.11,0,1,1,0,2.21,1.11,1.11,0,0,1-1.12-1.13m1.08,13.55a.67.67,0,0,1-.75-.75v-8.83a.66.66,0,0,1,.75-.75h.14a.67.67,0,0,1,.75.75v8.83a.67.67,0,0,1-.75.75Z" transform="translate(-38.89 -210.04)"/><path class="cls-1" d="M397.32,381.43a.85.85,0,0,1-.87-.59L392.79,372c-.21-.51,0-.86.59-.86h.14a.84.84,0,0,1,.87.58l3.17,7.66,3.14-7.66a.85.85,0,0,1,.87-.58h.14c.57,0,.8.35.59.86l-3.66,8.88a.85.85,0,0,1-.87.59Z" transform="translate(-38.89 -210.04)"/><path class="cls-1" d="M403.61,376.28a5.36,5.36,0,0,1,10.71,0,5.36,5.36,0,1,1-10.71,0m1.65,0a3.71,3.71,0,1,0,7.42,0,3.71,3.71,0,1,0-7.42,0" transform="translate(-38.89 -210.04)"/><path class="cls-1" d="M433.13,381.43a.68.68,0,0,1-.76-.76v-.89a5,5,0,0,1-3.89,1.9,5.45,5.45,0,0,1-5.36-5.4,5.38,5.38,0,0,1,5.36-5.35,5,5,0,0,1,3.89,1.86v-7.38a.67.67,0,0,1,.76-.75h.07a.67.67,0,0,1,.75.75v15.26a.67.67,0,0,1-.75.76Zm-.85-5.15a3.89,3.89,0,0,0-3.85-3.8,3.7,3.7,0,0,0-3.66,3.8,3.77,3.77,0,0,0,3.66,3.86,4,4,0,0,0,3.85-3.86" transform="translate(-38.89 -210.04)"/><path class="cls-1" d="M447,376.64c0,.26-.26.37-.75.37H438a3.79,3.79,0,0,0,3.64,3.13,3.56,3.56,0,0,0,2.48-1,1.22,1.22,0,0,1,.94-.43h.31c.61,0,.89.43.52.92a5.38,5.38,0,0,1-4.25,2.07,5.46,5.46,0,0,1-5.36-5.41,5.36,5.36,0,0,1,10.71,0Zm-9-1.13h7.28a3.7,3.7,0,0,0-7.28,0" transform="translate(-38.89 -210.04)"/><path class="cls-1" d="M455.57,373a8.7,8.7,0,0,1,8.75-8.5,8.57,8.57,0,0,1,6.89,3.48c.37.49.11.91-.5.91h-.26a1.13,1.13,0,0,1-.91-.42,7.16,7.16,0,0,0-5.22-2.25,6.88,6.88,0,1,0,5.87,10.56v-3a.67.67,0,0,1,.75-.75h.22a.67.67,0,0,1,.75.75v7a.67.67,0,0,1-.75.76h-.22a.67.67,0,0,1-.75-.76v-1.29A8.75,8.75,0,0,1,455.57,373" transform="translate(-38.89 -210.04)"/><path class="cls-1" d="M474.37,376.28a5.38,5.38,0,0,1,5.36-5.35,5,5,0,0,1,3.89,1.86v-.94a.67.67,0,0,1,.76-.75h.06a.67.67,0,0,1,.75.75v8.87a.67.67,0,0,1-.75.75h-.06a.67.67,0,0,1-.76-.75v-.94a5,5,0,0,1-3.89,1.9,5.45,5.45,0,0,1-5.36-5.4m9.16,0a3.89,3.89,0,0,0-3.85-3.8,3.7,3.7,0,0,0-3.66,3.8,3.77,3.77,0,0,0,3.66,3.86,4,4,0,0,0,3.85-3.86" transform="translate(-38.89 -210.04)"/><path class="cls-1" d="M490.06,372.5a4.52,4.52,0,0,1,2.72-1.5c.49-.09.77.21.77.71v0c0,.5-.25.71-.72.8a3.1,3.1,0,0,0-2.77,3.17v4.95a.67.67,0,0,1-.75.75h-.08a.67.67,0,0,1-.75-.75v-8.82a.67.67,0,0,1,.75-.76h.08a.67.67,0,0,1,.75.76Z" transform="translate(-38.89 -210.04)"/><path class="cls-1" d="M494.85,376.28a5.38,5.38,0,0,1,5.35-5.35,5,5,0,0,1,3.89,1.86v-.94a.67.67,0,0,1,.76-.75h.06a.67.67,0,0,1,.76.75v8.87a.67.67,0,0,1-.76.75h-.06a.67.67,0,0,1-.76-.75v-.94a5,5,0,0,1-3.89,1.9,5.45,5.45,0,0,1-5.35-5.4m9.15,0a3.89,3.89,0,0,0-3.85-3.8,3.7,3.7,0,0,0-3.66,3.8,3.77,3.77,0,0,0,3.66,3.86,4,4,0,0,0,3.85-3.86" transform="translate(-38.89 -210.04)"/><path class="cls-1" d="M509.7,381.43a.67.67,0,0,1-.75-.75v-8.83a.67.67,0,0,1,.75-.75h.08a.67.67,0,0,1,.75.75v.49a4.45,4.45,0,0,1,3.38-1.41c3,0,4.22,1.32,4.22,4.6v5.15a.67.67,0,0,1-.75.75h-.07a.67.67,0,0,1-.75-.75v-5.15c0-2-.94-3-2.65-3-2.09-.05-3.38,1.13-3.38,3.45v4.75a.67.67,0,0,1-.75.75Z" transform="translate(-38.89 -210.04)"/><path class="cls-1" d="M524.94,372.53h-1.57v8.15a.67.67,0,0,1-.75.75h-.07a.67.67,0,0,1-.75-.75v-8.15H521a.67.67,0,0,1-.75-.75c0-.45.25-.68.75-.68h.8v-3.32a.67.67,0,0,1,.75-.75h.07a.67.67,0,0,1,.75.75v3.32h1.57c.5,0,.75.23.75.7a.66.66,0,0,1-.75.73" transform="translate(-38.89 -210.04)"/><path class="cls-1" d="M527.22,368.63c-.64,0-.85-.4-.47-.91l1.45-2a1,1,0,0,1,.92-.47h.28c.64,0,.84.42.45.91l-1.65,2a1.06,1.06,0,0,1-.91.45Zm.87,12.8a.67.67,0,0,1-.75-.75v-8.83a.67.67,0,0,1,.75-.75h.14a.67.67,0,0,1,.75.75v8.83a.67.67,0,0,1-.75.75Z" transform="translate(-38.89 -210.04)"/><path class="cls-1" d="M531,376.28a5.38,5.38,0,0,1,5.35-5.35,5,5,0,0,1,3.89,1.86v-.94a.67.67,0,0,1,.76-.75H541a.67.67,0,0,1,.76.75v8.87a.67.67,0,0,1-.76.75H541a.67.67,0,0,1-.76-.75v-.94a5,5,0,0,1-3.89,1.9,5.45,5.45,0,0,1-5.35-5.4m9.15,0a3.89,3.89,0,0,0-3.85-3.8,3.7,3.7,0,0,0-3.66,3.8,3.77,3.77,0,0,0,3.66,3.86,4,4,0,0,0,3.85-3.86" transform="translate(-38.89 -210.04)"/><path class="cls-1" d="M566.35,377.43c.59,0,.8.43.43.92a8.58,8.58,0,1,1-.07-10.66c.39.49.14.92-.47.92h-.45a1.2,1.2,0,0,1-.94-.4,6.89,6.89,0,1,0,0,9.65,1.14,1.14,0,0,1,.94-.43Z" transform="translate(-38.89 -210.04)"/><path class="cls-1" d="M569.17,376.28a5.36,5.36,0,0,1,10.71,0,5.36,5.36,0,1,1-10.71,0m1.64,0a3.71,3.71,0,1,0,7.42,0,3.71,3.71,0,1,0-7.42,0" transform="translate(-38.89 -210.04)"/><path class="cls-1" d="M597.74,375.53v5.14a.66.66,0,0,1-.74.75h-.08a.67.67,0,0,1-.75-.75v-5.14c0-2-.77-3-2.3-3-1.9,0-3.1,1.06-3.1,3.57v4.62a.67.67,0,0,1-.75.75H590a.66.66,0,0,1-.75-.75v-5.14c0-2-.77-3-2.3-3-1.9,0-3.1,1.06-3.1,3.57v4.62a.67.67,0,0,1-.75.75H583a.66.66,0,0,1-.75-.75v-8.82a.67.67,0,0,1,.75-.76h.07a.67.67,0,0,1,.75.76v.49a3.93,3.93,0,0,1,3.1-1.41c1.81,0,2.93.59,3.47,2a3.87,3.87,0,0,1,3.5-2c2.68,0,3.87,1.31,3.87,4.6" transform="translate(-38.89 -210.04)"/><path class="cls-1" d="M609.11,371.1a.67.67,0,0,1,.75.75v8.83a.67.67,0,0,1-.75.75H609a.68.68,0,0,1-.75-.75v-.5a4.45,4.45,0,0,1-3.38,1.41c-2.95,0-4.22-1.31-4.22-4.6v-5.14a.67.67,0,0,1,.75-.75h.07a.67.67,0,0,1,.75.75V377c0,2,.94,3.05,2.65,3.05a3.1,3.1,0,0,0,3.38-3.45v-4.74a.68.68,0,0,1,.75-.75Z" transform="translate(-38.89 -210.04)"/><path class="cls-1" d="M613.9,381.43a.67.67,0,0,1-.75-.75v-8.83a.66.66,0,0,1,.75-.75H614a.67.67,0,0,1,.75.75v.49a4.45,4.45,0,0,1,3.38-1.41c3,0,4.22,1.32,4.22,4.6v5.15a.67.67,0,0,1-.75.75h-.07a.67.67,0,0,1-.75-.75v-5.15c0-2-.94-3-2.65-3-2.09-.05-3.38,1.13-3.38,3.45v4.75a.67.67,0,0,1-.75.75Z" transform="translate(-38.89 -210.04)"/><path class="cls-1" d="M625.14,367.88a1.12,1.12,0,0,1,1.13-1.08,1.11,1.11,0,0,1,0,2.21,1.12,1.12,0,0,1-1.13-1.13m1.08,13.55a.67.67,0,0,1-.75-.75v-8.83a.67.67,0,0,1,.75-.75h.14a.67.67,0,0,1,.75.75v8.83a.67.67,0,0,1-.75.75Z" transform="translate(-38.89 -210.04)"/><path class="cls-1" d="M634.18,372.53h-1.57v8.15a.67.67,0,0,1-.75.75h-.08a.67.67,0,0,1-.75-.75v-8.15h-.79a.67.67,0,0,1-.75-.75c0-.45.25-.68.75-.68H631v-3.32a.67.67,0,0,1,.75-.75h.08a.67.67,0,0,1,.75.75v3.32h1.57c.49,0,.75.23.75.7a.67.67,0,0,1-.75.73" transform="translate(-38.89 -210.04)"/><path class="cls-1" d="M636.22,376.28a5.38,5.38,0,0,1,5.35-5.35,5,5,0,0,1,3.9,1.86v-.94a.67.67,0,0,1,.75-.75h.07a.67.67,0,0,1,.75.75v8.87a.67.67,0,0,1-.75.75h-.07a.67.67,0,0,1-.75-.75v-.94a5,5,0,0,1-3.9,1.9,5.45,5.45,0,0,1-5.35-5.4m9.16,0a3.89,3.89,0,0,0-3.85-3.8,3.71,3.71,0,0,0-3.67,3.8,3.78,3.78,0,0,0,3.67,3.86,4,4,0,0,0,3.85-3.86" transform="translate(-38.89 -210.04)"/><path class="cls-1" d="M651.9,372.5a4.58,4.58,0,0,1,2.73-1.5c.49-.09.77.21.77.71v0c0,.5-.25.71-.73.8a3.1,3.1,0,0,0-2.77,3.17v4.95a.66.66,0,0,1-.75.75h-.07a.67.67,0,0,1-.75-.75v-8.82a.67.67,0,0,1,.75-.76h.07a.67.67,0,0,1,.75.76Z" transform="translate(-38.89 -210.04)"/><path class="cls-1" d="M657.28,367.88a1.12,1.12,0,0,1,1.13-1.08,1.11,1.11,0,0,1,0,2.21,1.12,1.12,0,0,1-1.13-1.13m1.08,13.55a.67.67,0,0,1-.75-.75v-8.83a.67.67,0,0,1,.75-.75h.14a.67.67,0,0,1,.75.75v8.83a.67.67,0,0,1-.75.75Z" transform="translate(-38.89 -210.04)"/><path class="cls-1" d="M661.74,376.28a5.36,5.36,0,0,1,10.71,0,5.36,5.36,0,1,1-10.71,0m1.64,0a3.71,3.71,0,1,0,7.42,0,3.71,3.71,0,1,0-7.42,0" transform="translate(-38.89 -210.04)"/><path class="cls-1" d="M684.23,385.58a.9.9,0,0,1-.89.54h-.26c-.59,0-.8-.38-.54-.89l2.49-5L680.9,372c-.26-.52,0-.89.54-.89h.26a.9.9,0,0,1,.89.53L686,378.4l3.38-6.77a.89.89,0,0,1,.89-.53h.26c.58,0,.8.37.53.89Z" transform="translate(-38.89 -210.04)"/><path class="cls-1" d="M705.17,381.43a.67.67,0,0,1-.75-.75V366.31h-4.93a.67.67,0,0,1-.75-.75v-.15a.67.67,0,0,1,.75-.75H711a.67.67,0,0,1,.75.75v.15a.67.67,0,0,1-.75.75h-4.91v14.37a.67.67,0,0,1-.75.75Z" transform="translate(-38.89 -210.04)"/><path class="cls-1" d="M721.44,376.64c0,.26-.26.37-.75.37h-8.24a3.79,3.79,0,0,0,3.64,3.13,3.58,3.58,0,0,0,2.49-1,1.19,1.19,0,0,1,.94-.43h.3c.61,0,.89.43.52.92a5.38,5.38,0,0,1-4.25,2.07,5.45,5.45,0,0,1-5.35-5.41,5.35,5.35,0,0,1,10.7,0Zm-9-1.13h7.28a3.7,3.7,0,0,0-7.28,0" transform="translate(-38.89 -210.04)"/><path class="cls-1" d="M725.48,372.5a4.55,4.55,0,0,1,2.73-1.5c.49-.09.77.21.77.71v0c0,.5-.26.71-.73.8a3.1,3.1,0,0,0-2.77,3.17v4.95a.66.66,0,0,1-.75.75h-.07a.66.66,0,0,1-.75-.75v-8.82a.67.67,0,0,1,.75-.76h.07a.67.67,0,0,1,.75.76Z" transform="translate(-38.89 -210.04)"/><path class="cls-1" d="M733,372.5a4.55,4.55,0,0,1,2.72-1.5c.5-.09.78.21.78.71v0c0,.5-.26.71-.73.8a3.1,3.1,0,0,0-2.77,3.17v4.95a.67.67,0,0,1-.75.75h-.08a.67.67,0,0,1-.75-.75v-8.82a.67.67,0,0,1,.75-.76h.08a.67.67,0,0,1,.75.76Z" transform="translate(-38.89 -210.04)"/><path class="cls-1" d="M738.39,367.88a1.12,1.12,0,1,1,1.13,1.13,1.13,1.13,0,0,1-1.13-1.13m1.08,13.55a.67.67,0,0,1-.75-.75v-8.83a.67.67,0,0,1,.75-.75h.14a.66.66,0,0,1,.75.75v8.83a.67.67,0,0,1-.75.75Z" transform="translate(-38.89 -210.04)"/><path class="cls-1" d="M747.43,372.53h-1.57v8.15a.67.67,0,0,1-.75.75H745a.67.67,0,0,1-.75-.75v-8.15h-.8a.67.67,0,0,1-.75-.75c0-.45.25-.68.75-.68h.8v-3.32A.67.67,0,0,1,745,367h.07a.67.67,0,0,1,.75.75v3.32h1.57c.49,0,.75.23.75.7a.67.67,0,0,1-.75.73" transform="translate(-38.89 -210.04)"/><path class="cls-1" d="M749.47,376.28a5.36,5.36,0,0,1,10.71,0,5.36,5.36,0,1,1-10.71,0m1.65,0a3.71,3.71,0,1,0,7.41,0,3.71,3.71,0,1,0-7.41,0" transform="translate(-38.89 -210.04)"/><path class="cls-1" d="M764.22,372.5a4.55,4.55,0,0,1,2.72-1.5c.5-.09.77.21.77.71v0c0,.5-.25.71-.72.8a3.1,3.1,0,0,0-2.77,3.17v4.95a.67.67,0,0,1-.75.75h-.08a.66.66,0,0,1-.74-.75v-8.82a.67.67,0,0,1,.74-.76h.08a.67.67,0,0,1,.75.76Z" transform="translate(-38.89 -210.04)"/><path class="cls-1" d="M769.59,367.88a1.12,1.12,0,1,1,1.13,1.13,1.13,1.13,0,0,1-1.13-1.13m1.08,13.55a.67.67,0,0,1-.75-.75v-8.83a.67.67,0,0,1,.75-.75h.14a.66.66,0,0,1,.75.75v8.83a.67.67,0,0,1-.75.75Z" transform="translate(-38.89 -210.04)"/><path class="cls-1" d="M774.29,376.28a5.38,5.38,0,0,1,5.35-5.35,5.06,5.06,0,0,1,3.9,1.86v-.94a.67.67,0,0,1,.75-.75h.07a.67.67,0,0,1,.75.75v8.87a.67.67,0,0,1-.75.75h-.07a.67.67,0,0,1-.75-.75v-.94a5,5,0,0,1-3.9,1.9,5.45,5.45,0,0,1-5.35-5.4m9.16,0a3.9,3.9,0,0,0-3.86-3.8,3.7,3.7,0,0,0-3.66,3.8,3.77,3.77,0,0,0,3.66,3.86,4,4,0,0,0,3.86-3.86" transform="translate(-38.89 -210.04)"/><rect class="cls-1" x="749.39" y="154.62" width="1.57" height="16.76" rx="0.75"/><path class="cls-2" d="M277,251.8q0-8.87-5.64-12.57t-15.06-3.69a20.56,20.56,0,0,0-7.2,1.11,13.76,13.76,0,0,0-4.8,2.86,10,10,0,0,0-2.59,3.79,11.21,11.21,0,0,0-.74,3.88,7.12,7.12,0,0,0,1.85,5,18.13,18.13,0,0,0,5,3.69,50,50,0,0,0,7.2,3.05c2.71.92,5.6,1.82,8.69,2.68q7.56,2.21,15.6,5.08a60.54,60.54,0,0,1,14.6,7.48,37.31,37.31,0,0,1,10.71,11.64q4.15,7,4.16,17.73a43.35,43.35,0,0,1-3.51,17.37A39.94,39.94,0,0,1,295,335a49.9,49.9,0,0,1-16.54,9.51A65.45,65.45,0,0,1,256.32,348q-16.8,0-29.09-6.55T209.4,324.21V298.35h22.91a26.25,26.25,0,0,0,1.85,10.07,22.08,22.08,0,0,0,5.08,7.66,22.92,22.92,0,0,0,7.66,4.9,25.89,25.89,0,0,0,9.61,1.75q10.53,0,16.26-5.26t5.72-14.13a9.48,9.48,0,0,0-1.94-6,17,17,0,0,0-5.26-4.34,41.56,41.56,0,0,0-7.76-3.23c-2.95-.93-6.1-1.88-9.42-2.86q-7.58-2.22-15.33-4.9a57.18,57.18,0,0,1-14.05-7,35.11,35.11,0,0,1-10.25-11q-4-6.66-4-16.81a34.77,34.77,0,0,1,2.87-13.77A33.69,33.69,0,0,1,222,221.5a43.22,43.22,0,0,1,14.32-8.31,58.07,58.07,0,0,1,20-3.15q15.71,0,27.07,5.27t16.53,13.58V251.8Z" transform="translate(-38.89 -210.04)"/><path class="cls-2" d="M317.1,322.92h13.67V235.17H317.1v-22h62.07a41.72,41.72,0,0,1,17,3.5A43.85,43.85,0,0,1,410,226.3a45.56,45.56,0,0,1,9.33,14.23,45.8,45.8,0,0,1,0,34.73A45.4,45.4,0,0,1,410,289.48a43.53,43.53,0,0,1-13.85,9.61,41.56,41.56,0,0,1-17,3.51H361.44v20.32H376v22H317.1Zm44.34-84.24v38.43h13.85a15.49,15.49,0,0,0,6.65-1.48,18,18,0,0,0,5.55-4.07,19.09,19.09,0,0,0,3.78-6.09,19.85,19.85,0,0,0,1.39-7.39,20.35,20.35,0,0,0-1.39-7.58,19,19,0,0,0-9.33-10.25,14.75,14.75,0,0,0-6.65-1.57Z" transform="translate(-38.89 -210.04)"/><path class="cls-2" d="M522.71,260.66V249.58q-12.56-14-27.89-14a34.48,34.48,0,0,0-26.88,12.19,42.54,42.54,0,0,0-7.67,13.58,50.35,50.35,0,0,0-2.77,16.9,53.41,53.41,0,0,0,2.77,17.37,46.62,46.62,0,0,0,7.67,14.23,36,36,0,0,0,11.73,9.6,32.66,32.66,0,0,0,15.15,3.51,35.62,35.62,0,0,0,13.48-2.77A31.11,31.11,0,0,0,519.94,312V294.28H496.85V273.6H561v20.68H547.28v24a70,70,0,0,1-22,21.8q-13.12,8.13-30.48,8.13a67.66,67.66,0,0,1-27.16-5.36,63.34,63.34,0,0,1-21.24-14.78,68.13,68.13,0,0,1-13.86-22.26,75.69,75.69,0,0,1-5-27.62,71.77,71.77,0,0,1,5-26.87,65.85,65.85,0,0,1,13.86-21.62,64.16,64.16,0,0,1,21.24-14.41A68.66,68.66,0,0,1,494.82,210q16.24,0,28.91,7.12a64,64,0,0,1,21,18.75v24.75Z" transform="translate(-38.89 -210.04)"/><path class="cls-2" d="M650.73,243.3a37.47,37.47,0,0,0-11-5.91,36.31,36.31,0,0,0-11.36-1.85,30.77,30.77,0,0,0-13.76,3.23,35.65,35.65,0,0,0-11.45,9,43.71,43.71,0,0,0-7.77,13.58,49,49,0,0,0-2.86,16.9,51.88,51.88,0,0,0,2.86,17.37,47.74,47.74,0,0,0,7.77,14.22,36.8,36.8,0,0,0,11.45,9.61,28.73,28.73,0,0,0,13.76,3.51q15.89,0,27-12.2v-9.6h22v22.17a67,67,0,0,1-21.52,18.29,57.38,57.38,0,0,1-27.43,6.65,63.11,63.11,0,0,1-25.5-5.17,62.24,62.24,0,0,1-20.59-14.51,68.89,68.89,0,0,1-13.86-22.17,75.77,75.77,0,0,1-5.08-28.17,70.55,70.55,0,0,1,5.08-26.88,67.91,67.91,0,0,1,13.86-21.61,64.69,64.69,0,0,1,20.59-14.41,62,62,0,0,1,25.5-5.26,56.24,56.24,0,0,1,24.29,5.26,69.24,69.24,0,0,1,20.05,14.32v22.16h-22Z" transform="translate(-38.89 -210.04)"/><polygon class="cls-2" points="645.28 41.75 645.28 3.14 749.66 3.14 749.66 41.75 727.67 41.75 727.67 28.64 712.89 28.64 712.89 112.88 726.56 112.88 726.56 134.86 668.55 134.86 668.55 112.88 682.22 112.88 682.22 28.64 667.26 28.64 667.26 41.75 645.28 41.75"/><polygon class="cls-3" points="62.31 141.89 91.59 161.64 104.91 141.89 62.31 141.89"/><polygon class="cls-3" points="144 55.19 139.05 73.94 146.17 80.72 157.32 64.18 144 55.19"/><polygon class="cls-4" points="75.03 26.7 36.65 20.59 29.8 46.49 75.03 26.7"/><polygon class="cls-5" points="14.8 81.63 79.97 22.84 142.53 82.42 79.97 141.2 14.8 81.63"/><polygon class="cls-3" points="80.04 17.74 84.67 22.15 95.02 22.15 65.74 2.4 52.42 22.15 75.15 22.15 80.04 17.74"/><polygon class="cls-6" points="56.68 38.81 13.45 57.72 19.02 72.78 56.68 38.81"/><polygon class="cls-7" points="25.3 52.54 32.34 25.89 22.54 25.89 22.54 53.75 25.3 52.54"/><polygon class="cls-6" points="127.97 63.4 110.19 15.4 87.85 25.18 127.97 63.4"/><polygon class="cls-7" points="114.08 25.89 115.73 30.33 134.79 33.36 134.79 25.89 114.08 25.89"/><polygon class="cls-6" points="103.98 123.77 143.88 106.32 138.37 91.45 103.98 123.77"/><polygon class="cls-7" points="132.03 111.5 124.99 138.15 134.79 138.15 134.79 110.29 132.03 111.5"/><polygon class="cls-6" points="28.99 99.66 47.14 148.64 71.1 138.16 28.99 99.66"/><polygon class="cls-7" points="41.6 133.71 22.54 130.68 22.54 138.15 43.25 138.15 41.6 133.71"/><polygon class="cls-5" points="14.8 81.63 79.97 22.84 142.53 82.42 79.97 141.2 14.8 81.63"/><polygon class="cls-4" points="19.4 85.83 8.88 125.67 36.24 130.02 20.11 86.48 19.4 85.83"/><polygon class="cls-3" points="18.32 89.92 11.14 83.34 0 99.86 13.32 108.84 18.32 89.92"/><polygon class="cls-4" points="137.96 78.07 148.45 38.38 121.08 34.02 137.1 77.25 137.96 78.07"/><polygon class="cls-4" points="83.82 137.58 120.69 143.44 127.53 117.56 85.63 135.89 83.82 137.58"/><path class="cls-8" d="M105.29,258.25,84.06,305.92l45.77,19.95,21.22-47.66Zm12.27,48.19a14.37,14.37,0,1,1,14.37-14.37,14.37,14.37,0,0,1-14.37,14.37" transform="translate(-38.89 -210.04)"/><rect class="cls-1" x="166.19" y="145.16" width="589.13" height="3.74"/></svg>